<?xml version="1.0" encoding="utf-8"?>
<!-- Generator: Adobe Illustrator 16.0.0, SVG Export Plug-In . SVG Version: 6.00 Build 0)  -->
<!DOCTYPE svg PUBLIC "-//W3C//DTD SVG 1.1//EN" "http://www.w3.org/Graphics/SVG/1.1/DTD/svg11.dtd">
<svg version="1.1" id="Laag_1" xmlns="http://www.w3.org/2000/svg" xmlns:xlink="http://www.w3.org/1999/xlink" x="0px" y="0px"
	 width="285.75px" height="163.579px" viewBox="0 0 285.75 163.579" enable-background="new 0 0 285.75 163.579"
	 xml:space="preserve">
<g>
	<path fill-rule="evenodd" clip-rule="evenodd" fill="#FEFEFE" d="M154.074,153.193c-0.07-0.025-0.139-0.02-0.205,0.016
		c-0.491,0.003-0.996-0.107-1.455,0.167c-0.854-0.013-1.708-0.018-2.549,0.169c-0.144-0.104-0.27-0.062-0.387,0.046
		c-1.398,0.176-2.836-0.2-4.206,0.528c-1.054,0.56-2.249-0.059-3.407,0.094c-3.233,0.426-6.49,0.68-9.737,1.002
		c-0.108-0.104-0.217-0.208-0.326-0.312c1.095-1.128,2.518-1.903,3.428-3.238c0.418-0.614,0.882-1.22,0.572-1.97
		c-0.288-0.697-0.952-0.795-1.679-0.87c-2.98-0.305-5.851,0.486-8.758,0.832c-3.538,0.421-7.067,0.593-10.626,0.547
		c-0.829-0.01-1.754-0.434-2.548,0.142c-1.076,0.78-2.034,0.412-3.028-0.258c1.923-0.239,3.471-1.38,5.241-1.97
		c2.78-0.926,5.504-2.012,8.341-2.785c1.737-0.474,3.426-1.125,4.593-2.636c0.839-1.085,0.779-3.47-0.233-3.781
		c-1.028-0.315-1.867-0.998-2.927-1.207c-2.826-0.555-5.696-0.755-8.553-0.792c-2.023-0.026-4.048-0.167-6.126,0.191
		c-1.202,0.207-2.685-0.276-4.086-0.039c-0.625,0.105-1.262-0.03-1.542,0.727c-1.231-0.637-1.675,0.655-2.521,1.023
		c2.539,0.654,5.07,0.145,7.593,0.072c1.02-0.029,2.094-0.275,3.042-0.223c0.886,0.048,1.855,0.24,2.793,0.34
		c0.803,0.086,1.708-0.021,2.385-0.145c2.522-0.461,4.698,0.459,6.929,1.188c1.467,0.479,1.515,1.017,0.39,2.1
		c-0.97,0.934-2.633,0.611-3.434,1.87c-0.014,0.021-0.078,0.021-0.116,0.015c-1.152-0.187-2.175,0.291-3.217,0.639
		c-3.052,1.02-5.804,2.83-9.05,3.357c-1.468,0.238-2.527,1.284-3.62,2.208c-0.371,0.314-0.465,0.73-0.363,1.197
		c-0.063,0.068-0.127,0.136-0.191,0.204c-0.1-0.064-0.199-0.129-0.3-0.191c-0.049-0.093-0.098-0.186-0.146-0.279
		c-0.012,0.035-0.037,0.071-0.035,0.105c0.009,0.127,0.049,0.221,0.205,0.147c-0.25,0.359,0.06,0.488,0.274,0.641
		c0.94,0.673,4.461,1.195,5.626,0.837c-0.271-0.4-0.78-0.051-1.116-0.385c0.638-0.289,1.187-0.312,1.89-0.078
		c1.648,0.547,3.434,0.682,5.006-0.05c0.984-0.458,1.701-0.964,2.644-0.085c0.316,0.294,0.682-0.004,1.013-0.1
		c1.007-0.292,2.022-0.877,3.012-0.835c1.574,0.066,3.004,0.588,4.677-0.221c1.3-0.629,3.018-0.42,4.555-0.524
		c0.451-0.03,1.052,0.017,1.267,0.446c0.197,0.395-0.455,0.564-0.583,0.935c-0.052,0.148-0.145,0.282-0.219,0.422
		c-0.045,0.109-0.065,0.277-0.23,0.095c0.141-0.047,0.209,0.015,0.229,0.151c-0.478,0.963-1.511,1.355-2.176,2.125
		c-0.397,0.46-0.915,0.963-0.077,1.442c0.89,0.508,1.839,0.959,2.909,0.748c1.355-0.269,2.769-0.294,4.048-0.885
		c0.549-0.253,1.032-0.303,1.566,0.035c0.26,0.165,0.622,0.239,0.881-0.039c0.266-0.285-0.445-0.352-0.26-0.573
		c2.53-0.421,5.08,0.047,7.452-0.874c1.889-0.733,3.846-0.486,5.778-0.628c0.332,0.121,0.668,0.125,1.008,0.04
		c0.511-0.079,1.073,0.337,1.54-0.163l0.09,0.01l0.031-0.086c0.473,0.048,0.861,0.461,1.379,0.319
		c1.352-0.445,2.687,0.107,4.03,0.184c-0.983-0.906-2.12-0.808-3.263-0.673c-0.875-0.163-1.749-0.325-2.623-0.487
		C154.408,153.176,154.242,153.185,154.074,153.193z M34.721,113.564c-0.021,0.222-0.042,0.443-0.064,0.665
		c-0.088,1.059-0.177,2.119-0.266,3.178c-0.038,0.617-0.076,1.233-0.114,1.849c-0.184,0.274-0.167,0.545,0.016,0.813
		c-0.018,0.148-0.035,0.295-0.053,0.443c-0.252,0.451-0.154,0.945-0.172,1.424c-0.025,0.068-0.032,0.137-0.021,0.209
		c-0.153,0.25-0.163,0.511-0.048,0.778c-0.015,0.221-0.03,0.442-0.045,0.664c-0.297,0.882-1.468,0.814-1.8,1.658
		c-1.113,0.461-1.662,1.582-2.611,2.235c-5.512-0.106-11.021-0.062-16.529,0.204c-0.656,0.031-0.962,0.364-0.971,0.962
		c-0.01,0.67,0.484,0.735,1.003,0.714c1.355-0.055,2.709-0.147,4.065-0.161c3.716-0.037,7.433-0.041,11.149-0.058
		c-0.297,0.616-0.611,1.22-1.106,1.708c-3.163,0.301-6.324,0.613-9.488,0.895c-0.612,0.055-1.13,0.111-1.093,0.907
		c0.037,0.806,0.63,0.775,1.195,0.832c2.261,0.228,4.53,0.207,6.798,0.246c0.413,0.007,0.892-0.182,1.213,0.271
		c-0.223,0.843-0.493,1.677-0.66,2.531c-0.673,3.447,0.64,4.756,4.069,4.044c2.038-0.423,3.927-1.275,5.806-2.143
		c1.462,0.16,2.923,0.339,4.388,0.474c1.349,0.125,2.702,0.205,4.054,0.299c0.48,0.034,0.907-0.062,0.946-0.646
		c0.035-0.52-0.271-0.817-0.758-0.918c-0.271-0.057-0.56-0.037-0.831-0.097c-1.612-0.359-3.325-0.044-4.886-0.734
		c0.505-0.333,0.968-0.748,1.602-0.832c1.717,0.287,3.449,0.04,5.115-0.199c5.666-0.813,11.34-1.101,17.05-0.844
		c0.546,0.024,1.09,0.048,1.19-0.66c0.093-0.657-0.349-0.896-0.902-1.047c-2.737-0.748-5.526-1.174-8.348-1.436
		c-3.861-0.358-7.73-0.249-11.599-0.25c-0.182-0.291-0.301-0.601-0.272-0.953c1.377-0.092,2.755-0.183,4.133-0.275
		c4.093,1.074,8.243,0.926,12.404,0.579c0.936-0.078,1.465-0.526,1.521-1.483c2.307-0.26,4.625-0.257,6.94-0.298
		c0.732-0.013,1.454-0.098,1.409-1.042c-0.045-0.954-0.854-0.795-1.463-0.783c-2.475,0.05-4.95,0.134-7.425,0.205
		c-1.822-2.81-4.184-5.032-7.278-6.348c-0.91-0.387-1.114-0.851-1.083-1.752c0.376-10.697,0.72-21.395,1.702-32.059
		c0.046-0.496,0.153-0.916,0.49-1.303c0.521-0.597,0.739-1.318,0.642-2.113c-0.389-3.187-3.836-6.687-6.99-6.798
		c-1.286-0.045-1.514-0.575-1.571-1.567c-0.014-0.239-0.019-0.482-0.065-0.716c-0.289-1.47,1.242-1.158,1.795-1.815
		c0.437-0.519,0.753,0.089,1.061,0.332c5.3,4.174,10.516,8.457,15.942,12.469c0.67,0.496,0.976,0.998,0.895,1.875
		c-0.262,2.826,0.775,5.056,3.23,6.586c0.98,0.611,1.896,1.325,2.872,1.946c1.944,1.238,3.908,2.444,5.864,3.664
		c0.075,0.267,0.121,0.546,0.23,0.798c2.14,4.919,4.289,9.834,6.433,14.752c0.746,1.71,1.36,3.494,2.71,4.868
		c0.01,0.283,0.083,0.526,0.271,0.764c2.181,2.75,4.412,5.464,6.878,7.956c0.517,0.522,0.632,1.635,1.724,1.541
		c0.279,0.824,1.07,1.162,1.627,1.722c1.381,1.318,2.801,2.595,4.533,3.44c1.079,0.527,1.709,0.289,1.998-0.833
		c0.699-2.714,0.749-5.478,0.415-8.253c0.078-0.857,0.208-1.696,0.137-2.582c-0.077-0.952-0.404-1.872-0.433-2.779
		c-0.095-2.958-0.434-5.86-1.257-8.703c-0.131-1.588-0.929-2.95-1.536-4.364c-2.633-6.134-5.318-12.247-7.981-18.368
		c-2.792-6.414-5.58-12.829-8.369-19.244c1.494-0.934,3.184-1.706,3.188-3.868c0.199-2.78-0.622-5.355-1.694-7.848
		c-0.453-1.053-1.405-1.707-2.53-2.035c-1.623-0.473-3.146-0.208-4.59,0.63c-0.118-0.203-0.259-0.396-0.352-0.61
		c-1.781-4.094-3.553-8.19-5.332-12.285c-3.109-7.158-6.221-14.314-9.331-21.472c-1.539-3.542-3.09-7.078-4.603-10.631
		c-0.359-0.842-0.882-1.229-1.817-1.213c-1.731,0.03-3.418,0.226-5.02,0.925c-1.946,0.57-3.844,1.249-5.522,2.429
		c-0.586,0.026-0.963,0.39-1.305,0.81c-0.587-0.367-1.226-0.56-1.918-0.594c-2.393-0.119-4.677,0.345-6.845,1.337
		c-1.021,0.468-1.932,1.125-2.579,2.076c-0.366,0.538-0.76,1.122-0.098,1.693c0.604,0.522,1.035,0,1.434-0.367
		c2.115-1.942,4.584-2.811,7.452-2.508c-1.165,1.013-1.271,2.218-0.645,3.556c-4.28-0.79-8.297-0.178-11.977,2.244
		c-0.181,0.119-0.399,0.327-0.562-0.038c0.099-0.475,0.441-0.882,0.142-1.447c-0.753-1.419-0.608-2.918-0.248-4.419
		c0.121-0.501,0.233-1.01,0.281-1.522c0.045-0.492-0.036-0.988-0.619-1.147c-0.637-0.174-0.992,0.218-1.167,0.74
		c-0.751,2.247-0.958,4.502-0.003,6.756c0.31,0.731,0.801,1.144,1.635,1.02c0.298,0.691-0.417,0.722-0.695,0.959
		c-2.214,1.892-3.787,4.193-4.773,7.028c1.371-0.452,2.543-0.925,3.025-2.334c0.094-0.276,0.21-0.8,0.771-0.618
		c0.441,0.957,1.178,0.765,1.884,0.431c2.064-0.977,4.135-1.902,6.496-1.8c0.313,0.013,0.566-0.11,0.623-0.435
		c0.052-0.3-0.104-0.54-0.36-0.697c-0.34-0.208-0.693-0.357-1.103-0.421c-1.283-0.199-2.428,0.281-3.61,0.629
		c-1.347,0.397-2.445,1.277-3.71,1.826c-0.024-0.067-0.089-0.165-0.065-0.196c4.535-5.982,13.177-6.574,18.228-2.679
		c-0.663,0.466-1.357,0.868-1.865,1.493c-0.194,0.239-0.314,0.472-0.132,0.754c0.194,0.3,0.484,0.243,0.748,0.128
		c0.73-0.321,1.46-0.645,2.174-0.999c0.3-0.148,0.618-0.361,0.854-0.026c0.711,1.008,1.625,0.495,2.49,0.392
		c0.235,0.246,0.471,0.493,0.706,0.739c-0.747,0.122-1.5,0.212-2.239,0.372c-1.09,0.235-2.239,0.363-3.24,0.812
		c-2.91,1.305-5.864,1.437-9,1.062c-3.864-0.463-7.634,0.254-11.215,1.846c-0.738,0.328-1.144,0.648-0.729,1.567
		c0.508,1.126,0.69,2.368,0.894,3.587c0.541,3.244,2.462,5.53,5.263,6.154c1.509,0.336,3.02,0.111,4.518-0.164
		c0.764,0.619,1.313,1.48,2.202,1.959c0.09,0.236,0.18,0.471,0.271,0.706c-0.259,0.347-0.51,0.189-0.824,0.045
		c-1.757-0.805-2.145-0.704-3.307,0.761C33.71,45.823,33.55,46.022,33.47,46c-1.22-0.332-1.061,0.886-1.554,1.361
		c-1.966-0.952-3.376-2.508-4.616-4.249c-0.137-0.193-0.259-0.38-0.249-0.647c0.063-1.693-0.089-1.763-1.631-1.019
		c-1.249,0.603-2.474,0.531-3.593-0.37c-1.084-0.873-1.37-2.031-1.107-3.329c0.245-1.211,1.425-2.233,2.701-2.407
		c0.385-0.053,0.782-0.008,1.3-0.008c-0.357-1.063-0.44-2.077-0.973-3.065c-0.338,1.148-0.338,1.148-1.486,1.568
		c-2.453,0.897-3.789,3.285-3.265,5.834c0.498,2.423,2.82,4.08,5.452,3.824c0.665-0.065,1.06,0.05,1.463,0.654
		c2.25,3.372,5.373,5.727,9.35,6.333c2.243,0.341,2.89,1.373,3.08,3.25c0.004,0.04,0.014,0.079,0.028,0.117
		c0.228,0.626-0.003,0.924-0.647,1.073c-1.442,0.335-2.841,0.809-4.116,1.585c-2.142,1.305-3.142,3.426-2.543,5.701
		c0.839,3.192,2.165,6.176,4.263,8.76c1.478,1.819,3.298,3.248,5.695,3.401c1.373,0.087,1.656,0.704,1.662,1.806
		c0.003,0.659,0.359,1.345-0.625,1.772c-3.686,1.602-4.618,6.24-4.018,9.167c0.167,0.815,0.184,1.509,0.018,2.298
		c-1.308,6.22-2.175,12.507-2.792,18.83c-0.417,1.27-0.162,2.607-0.391,3.896c-0.034,0.297-0.067,0.595-0.101,0.893
		C34.664,113.2,34.599,113.373,34.721,113.564z M30.477,19.086c0.1,0.59-0.246,1.362,0.658,1.483
		c0.656,0.088,0.876-0.408,0.949-0.978c0.458-3.612,2.48-6.109,5.548-7.908c0.579-0.339,1.698-0.67,1.126-1.614
		c-0.475-0.785-1.436-0.283-2.065,0.043C33.037,12.009,30.886,14.975,30.477,19.086z"/>
	<path fill-rule="evenodd" clip-rule="evenodd" fill="#3B3B3B" d="M59.803,129.411c-0.056,0.957-0.586,1.406-1.521,1.483
		c-4.161,0.347-8.311,0.495-12.404-0.579c-0.979-0.729-0.894-1.835-1.017-2.868c0.029-1.556,0.017-3.121,0.506-4.623
		c0.368-1.127,0.901-2.314,2.064-2.628c0.934-0.251,0.924-0.686,0.944-1.376c0.291-10.018,0.63-20.034,1.545-30.02
		c0.078-0.847-0.249-0.8-0.857-0.636c-2.505,0.679-5.028,1.292-7.652,1.152c-0.687-0.037-0.755,0.337-0.865,0.849
		c-1.39,6.447-2.132,12.988-2.881,19.529c-2.352,0.072-2.352,0.072-2.398-1.453c0.618-6.323,1.485-12.61,2.792-18.83
		c0.167-0.79,0.149-1.483-0.018-2.298c-0.6-2.927,0.332-7.565,4.018-9.167c0.984-0.428,0.627-1.114,0.625-1.772
		c-0.005-1.102-0.289-1.718-1.662-1.806c-2.397-0.153-4.218-1.582-5.695-3.401c-2.098-2.583-3.424-5.567-4.263-8.76
		c-0.599-2.275,0.402-4.396,2.543-5.701c1.275-0.777,2.674-1.25,4.116-1.585c0.644-0.149,0.875-0.447,0.647-1.073
		c-0.014-0.038-0.023-0.077-0.028-0.117c-0.19-1.877-0.837-2.909-3.08-3.25c-3.977-0.606-7.099-2.961-9.35-6.333
		c-0.403-0.604-0.798-0.719-1.463-0.654c-2.632,0.255-4.955-1.401-5.452-3.824c-0.524-2.55,0.812-4.937,3.265-5.834
		c1.148-0.42,1.148-0.42,1.486-1.568c0.532,0.988,0.615,2.002,0.973,3.065c-0.518,0-0.916-0.044-1.3,0.008
		c-1.276,0.174-2.456,1.195-2.701,2.407c-0.263,1.298,0.023,2.456,1.107,3.329c1.119,0.901,2.344,0.973,3.593,0.37
		c1.542-0.745,1.695-0.675,1.631,1.019c-0.01,0.267,0.112,0.454,0.249,0.647c1.239,1.741,2.65,3.297,4.616,4.249
		c0.405,0.226,0.809,0.451,1.214,0.676c0.072,0.021,0.145,0.041,0.217,0.061c2.036,1.013,4.221,1.154,6.439,1.108
		c0.723,0.235,1.426,0.484,1.035,1.492c-0.289,0.152-0.515,0.285-0.376,0.718c0.206,0.643,0.333,1.314,0.456,1.98
		c0.116,0.634,0.415,0.819,1.064,0.678c0.697-0.151,1.424-0.174,2.141-0.226c3.093-0.224,5.57,0.894,6.406,3.136
		c0.467,1.253,1.23,2.202,2.098,3.128c0.789,0.842,1.593,1.67,2.391,2.504c-0.18,0.414-0.668,0.702-0.509,1.253
		c-0.537-0.124-0.852,0.299-1.253,0.509c-0.653-0.603-1.306-1.206-2.045-1.889c-0.173,1.964-0.403,3.755-0.896,5.53
		c-0.286,1.032-1.519,1.966-0.928,2.98c0.525,0.901,1.66,1.45,2.537,2.141c4.29,3.379,8.582,6.756,12.879,10.126
		c0.446,0.35,0.863,0.844,1.379-0.043c0.539-0.927,1.448-1.458,2.51-1.686c0.966-0.041,1.891,0.179,2.821,0.404
		c1.357,0.329,2.731,0.536,4.135,0.353c1.716-0.179,1.985-0.021,2.49,1.485c0.346,1.032,0.129,2.035-0.174,3.031
		c-0.476,0.471-0.865,1.043-1.525,1.297c-0.371,0.143-0.505,0.295-0.188,0.679c1.538,1.865,3.05,3.752,4.57,5.631
		c0,0,0.022-0.036,0.022-0.036c0.031,0.153,0.044,0.312,0.094,0.458c1.127,3.316-0.787,5.65-4.149,5.055
		c-1.956-1.219-3.92-2.425-5.864-3.664c-0.975-0.621-1.891-1.334-2.872-1.946c-2.455-1.53-3.492-3.76-3.23-6.586
		c0.082-0.877-0.224-1.38-0.895-1.875c-5.426-4.012-10.642-8.295-15.942-12.469c-0.308-0.243-0.624-0.851-1.061-0.332
		c-0.554,0.657-2.084,0.345-1.795,1.815c0.046,0.234,0.051,0.477,0.065,0.716c0.057,0.992,0.285,1.522,1.571,1.567
		c3.154,0.111,6.601,3.611,6.99,6.798c0.097,0.794-0.121,1.516-0.642,2.113c-0.337,0.387-0.444,0.807-0.49,1.303
		c-0.982,10.665-1.326,21.362-1.702,32.059c-0.032,0.901,0.172,1.365,1.083,1.752c3.094,1.315,5.457,3.538,7.278,6.348
		C59.553,128.103,59.746,128.738,59.803,129.411z M52.586,61.209c-0.043-0.031-0.087-0.062-0.131-0.093
		c0.031,0.044,0.062,0.088,0.093,0.132c0.03,0.299,0.192,0.458,0.495,0.468c0.014,0.305,0.172,0.467,0.479,0.481
		c0.037,0.106,0.073,0.212,0.109,0.318c0.031-0.023,0.09-0.064,0.088-0.067c-0.056-0.091-0.119-0.179-0.18-0.267
		c0-0.321-0.158-0.484-0.481-0.481C53.048,61.396,52.879,61.244,52.586,61.209z M47.791,70.375c0.457-0.25,0.889-0.524,0.967-1.121
		c-0.479,0.221-0.914,0.483-1.012,1.076c-0.03,0.044-0.06,0.088-0.089,0.132C47.702,70.433,47.747,70.403,47.791,70.375z
		 M49.459,61.32c-0.033-0.494-0.043-1.296-0.149-2.085c-0.339-2.523-1.353-3.43-3.918-3.609c-1.53-0.107-3.039,0.081-4.523,0.381
		c-2.337,0.473-4.722,0.825-6.74,2.277c-1.246,0.896-1.763,2.094-1.366,3.545c0.839,3.066,2.114,5.941,4.229,8.366
		c2.242,2.571,5.486,3.292,8.073,1.898c0.648-0.35,0.733-0.516,0.095-1.024c-3.621-2.883-7.192-5.827-10.809-8.716
		c-0.763-0.609-1.19-1.288-0.563-2.115c0.661-0.87,1.447-0.528,2.178,0.064c3.567,2.891,7.185,5.72,10.693,8.68
		c1,0.844,1.226,0.442,1.585-0.443C49.146,66.318,49.409,63.994,49.459,61.32z M72.036,86.81c0.704,0,1.165,0.008,1.625-0.002
		c0.476-0.011,0.962,0.016,1.426-0.072c1.034-0.194,1.596-0.992,1.472-1.979c-0.055-0.436-0.159-0.749-0.728-0.699
		c-2.015,0.174-3.97-0.181-5.908-0.705c-0.833-0.225-1.58-0.008-2.176,0.642c-1.445,1.575-2.078,6.535,0.559,8.345
		c2.928,2.009,5.853,4,8.991,5.665c1.137,0.603,1.743,0.354,2.086-0.893c0.195-0.708,0.128-1.351-0.38-2.006
		C76.837,92.313,74.718,89.484,72.036,86.81z M39.604,85.305c-0.049,1.877,0.348,2.294,2.271,2.339
		c1.69,0.04,3.321-0.369,4.96-0.699c1.37-0.276,2.735-0.598,3.963-1.282c0.605-0.337,1.437-0.756,1.164-1.605
		c-0.73-2.272-1.942-4.25-4.363-5.034C43.457,77.681,39.726,80.648,39.604,85.305z M48.107,121.911
		c-0.905,0.663-1.424,1.694-1.467,3.443c-0.098,3.96-0.343,3.514,3.135,3.896c2.719,0.298,5.46,0.272,8.336-0.112
		c-1.545-3.022-3.886-4.965-6.727-6.386c-0.223-0.111-0.41-0.113-0.652,0.049C49.169,123.847,48.717,123.686,48.107,121.911z
		 M46.806,71.56c0.156-0.144,0.296-0.223,0.359-0.343c0.078-0.148,0.048-0.338-0.179-0.284c-0.126,0.03-0.244,0.173-0.321,0.293
		C46.636,71.272,46.733,71.398,46.806,71.56z"/>
	<path fill-rule="evenodd" clip-rule="evenodd" fill="#F7CD0F" d="M77.945,86.813c0.303-0.997,0.521-2,0.174-3.031
		c-0.505-1.506-0.773-1.664-2.49-1.485c-0.898-2.57-2.094-5.012-3.194-7.497c-2.204-4.981-4.341-9.993-6.501-14.994
		c-1.356-3.14-2.655-6.306-4.073-9.418c-1.064-2.335-1.908-4.761-3.116-7.041c-0.875-1.651-1.455-3.458-2.166-5.195
		c1.027-1.416,1.703-2.973,1.686-4.743c-0.017-1.705-0.182-3.41,0.025-5.112c0.077-0.632-0.228-0.815-0.795-0.908
		c-2.083-0.343-4.17-0.573-6.284-0.389c-0.235-0.247-0.471-0.493-0.706-0.739c-0.633-1.302-0.633-1.302,0.963-1.547
		c0.274-0.042,0.546-0.092,0.82-0.133c0.334-0.05,0.641-0.15,0.632-0.56c-0.007-0.384-0.296-0.571-0.621-0.61
		c-0.548-0.066-1.104-0.065-1.656-0.092c-0.343-0.323-0.657-0.653-0.923-1.063c-0.805-1.237-1.295-2.624-1.867-3.956
		c-0.507-1.182-1.2-2.328-1.308-3.664c1.678-1.18,3.576-1.859,5.522-2.429c-0.016,0.078-0.07,0.174-0.043,0.232
		c1.729,3.735,3.387,7.5,4.946,11.311c0.951,2.325,2.043,4.591,3.05,6.894c1.499,3.429,2.958,6.876,4.473,10.299
		c0.729,1.648,1.534,3.278,2.184,4.946c1.349,3.461,3.076,6.75,4.421,10.211c0.945,2.428,2.056,4.794,3.15,7.162
		c0.654,1.414,1.024,2.96,1.97,4.238c-0.24,1.723,0.255,3.124,1.783,4.073c0.044,0.233,0.049,0.482,0.139,0.697
		c1.034,2.475,2.051,4.958,3.13,7.414c2.306,5.246,4.71,10.45,6.948,15.725c1.509,3.555,3.188,7.035,4.574,10.646
		c1.067,2.78,2.857,5.296,2.986,8.41c0.001,0.016,0.07,0.029,0.107,0.043c0.155,2.85-2.016,3.776-3.758,2.738
		c-0.405-0.241-0.776-0.539-1.163-0.81c-0.303-0.916-1.108-1.516-1.455-2.428c-1.23-3.231-2.85-6.293-4.083-9.531
		c-1.137-2.989-2.54-5.877-3.827-8.81c-0.203-0.461-0.269-1.006-0.778-1.281c0,0-0.022,0.036-0.021,0.036
		c-0.278-0.837-0.449-1.7-0.8-2.525C79.287,90.214,78.305,88.637,77.945,86.813z"/>
	<path fill-rule="evenodd" clip-rule="evenodd" fill="#E4B910" d="M76.22,67.498c-0.945-1.278-1.315-2.825-1.97-4.238
		c-1.095-2.367-2.206-4.733-3.15-7.162c-1.346-3.46-3.073-6.75-4.421-10.211c-0.65-1.668-1.455-3.298-2.184-4.946
		c-1.515-3.423-2.974-6.87-4.473-10.299c-1.006-2.303-2.099-4.569-3.05-6.894c-1.559-3.811-3.217-7.576-4.946-11.311
		c-0.027-0.058,0.027-0.154,0.043-0.232c1.602-0.699,3.289-0.895,5.02-0.925c0.935-0.017,1.458,0.371,1.817,1.213
		c1.513,3.553,3.064,7.089,4.603,10.631c3.11,7.157,6.222,14.314,9.331,21.472c1.779,4.095,3.551,8.191,5.332,12.285
		c0.093,0.214,0.233,0.407,0.352,0.61c0.09,0.601,0.233,1.179,0.696,1.62c0.012,0.608,0.454,1.05,0.615,1.601
		c-0.063,1.52-0.833,2.699-1.848,3.743C77.139,65.325,76.524,66.317,76.22,67.498z"/>
	<path fill-rule="evenodd" clip-rule="evenodd" fill="#E4B910" d="M95.887,114.505c-0.037-0.014-0.106-0.027-0.107-0.043
		c-0.128-3.114-1.918-5.63-2.986-8.41c-1.387-3.611-3.065-7.091-4.574-10.646c-2.238-5.275-4.643-10.479-6.948-15.725
		c-1.079-2.456-2.096-4.938-3.13-7.414c-0.089-0.214-0.094-0.464-0.138-0.697c1.885,0.581,3.589-0.058,5.28-0.782
		c0.289-0.059,0.577-0.118,0.866-0.177c2.79,6.415,5.578,12.83,8.369,19.244c2.664,6.122,5.349,12.234,7.981,18.368
		c0.607,1.414,1.405,2.776,1.536,4.364c-0.014,0.236-0.049,0.474-0.037,0.709c0.063,1.248-0.514,2.177-1.58,2.697
		c-0.984,0.48-1.944,0.124-2.748-0.553c-0.449-0.378-0.828-0.838-1.239-1.261C95.795,113.527,96.036,114.341,95.887,114.505z"/>
	<path fill-rule="evenodd" clip-rule="evenodd" fill="#555555" d="M152.384,154.022c-1.933,0.142-3.89-0.104-5.778,0.628
		c-2.373,0.92-4.922,0.452-7.452,0.874c-0.186,0.221,0.525,0.288,0.26,0.573c-0.259,0.278-0.622,0.204-0.881,0.039
		c-0.535-0.338-1.018-0.288-1.566-0.035c-1.279,0.59-2.693,0.616-4.048,0.885c-1.07,0.212-2.019-0.239-2.909-0.748
		c-0.838-0.479-0.32-0.982,0.077-1.442c0.665-0.77,1.699-1.163,2.176-2.125l-0.017,0.009c0.084-0.043,0.169-0.086,0.254-0.129
		c-0.084-0.045-0.169-0.091-0.254-0.136l0.018,0.01c0.074-0.14,0.167-0.273,0.219-0.422c0.128-0.37,0.781-0.54,0.583-0.935
		c-0.214-0.43-0.816-0.477-1.267-0.446c-1.537,0.104-3.254-0.105-4.555,0.524c-1.673,0.809-3.103,0.287-4.677,0.221
		c-0.99-0.042-2.005,0.542-3.012,0.835c-0.331,0.096-0.697,0.395-1.013,0.1c-0.943-0.879-1.659-0.373-2.644,0.085
		c-1.572,0.732-3.358,0.597-5.006,0.05c-0.704-0.234-1.252-0.211-1.89,0.078c0.336,0.334,0.845-0.015,1.116,0.385
		c-1.165,0.358-4.686-0.164-5.626-0.837c-0.214-0.153-0.525-0.282-0.274-0.641l-0.021,0.024c0.1,0.064,0.199,0.129,0.298,0.193
		c0.17,0.154,0.251,0.645,0.545,0.353c0.268-0.265-0.146-0.417-0.354-0.557c-0.103-0.467-0.008-0.883,0.363-1.197
		c1.093-0.924,2.152-1.969,3.62-2.208c3.246-0.527,5.998-2.337,9.05-3.357c1.042-0.349,2.065-0.826,3.217-0.639
		c0.038,0.006,0.102,0.006,0.116-0.015c0.801-1.259,2.464-0.936,3.434-1.87c1.125-1.083,1.077-1.621-0.39-2.1
		c-2.231-0.729-4.407-1.65-6.929-1.188c-0.677,0.124-1.582,0.231-2.385,0.145c-0.938-0.1-1.907-0.292-2.793-0.34
		c-0.948-0.052-2.022,0.194-3.042,0.223c-2.523,0.072-5.055,0.582-7.593-0.072c0.846-0.368,1.29-1.661,2.521-1.023
		c0.28-0.757,0.917-0.621,1.542-0.727c1.401-0.237,2.884,0.246,4.086,0.039c2.078-0.358,4.103-0.217,6.126-0.191
		c2.857,0.037,5.727,0.237,8.553,0.792c1.061,0.208,1.899,0.891,2.927,1.207c1.013,0.311,1.072,2.696,0.233,3.781
		c-1.167,1.51-2.856,2.162-4.593,2.636c-2.836,0.773-5.561,1.859-8.341,2.785c-1.771,0.589-3.318,1.73-5.241,1.97
		c0.994,0.67,1.952,1.039,3.028,0.258c0.793-0.575,1.719-0.152,2.548-0.142c3.559,0.046,7.088-0.126,10.626-0.547
		c2.907-0.346,5.778-1.137,8.758-0.832c0.728,0.075,1.391,0.173,1.679,0.87c0.31,0.75-0.153,1.356-0.572,1.97
		c-0.91,1.335-2.333,2.11-3.427,3.238c-0.149,0.089-0.398,0.185-0.249,0.382c0.163,0.216,0.394,0.068,0.575-0.07
		c3.248-0.322,6.504-0.576,9.737-1.002c1.158-0.152,2.353,0.466,3.407-0.094c1.37-0.728,2.807-0.352,4.206-0.528
		c0.129-0.015,0.258-0.031,0.387-0.046c0.841-0.188,1.694-0.182,2.549-0.169C152.404,153.592,152.395,153.808,152.384,154.022z
		 M116.062,151.761c-1.173,0-2.044,0-2.916,0C114.014,152.171,114.877,152.671,116.062,151.761z M131.844,156.313
		c0.796,0.384,1.417,0.635,2.133,0.449c0.026-0.007,0.052-0.18,0.029-0.193C133.402,156.207,132.77,155.982,131.844,156.313z"/>
	<path fill-rule="evenodd" clip-rule="evenodd" fill="#3B3B3B" d="M51.211,26.999c2.114-0.184,4.201,0.046,6.284,0.389
		c0.567,0.093,0.872,0.276,0.795,0.908c-0.207,1.702-0.042,3.407-0.025,5.112c0.017,1.77-0.658,3.327-1.686,4.743
		c-0.995,0.974-2.183,1.614-3.505,2.021c-0.236,0.034-0.472,0.068-0.708,0.1c-2.995,0.413-5.667-0.058-7.528-2.75
		c-0.84-1.215-1.602-2.473-2.171-3.841c-0.155-0.371-0.361-0.785-0.813-0.784c-0.497,0-0.564,0.5-0.713,0.857
		c-0.076,0.181-0.095,0.385-0.14,0.579c-0.994-0.232-1.589,0.491-2.291,0.957c0.009-0.151,0.019-0.303,0.027-0.454
		c0.237-0.408,0.244-0.813-0.017-1.215c-0.034-1.032-0.665-1.592-1.562-1.891c-2.477-0.827-4.957-0.711-7.418,0.072
		c-0.495,0.157-0.924,0.465-1.255,0.888c-1.514,1.932-0.49,6.283,1.73,7.349c3.124,1.5,7.229-0.247,8.268-3.518
		c0.133-0.05,0.187-0.139,0.136-0.279l-0.001-0.004c0.207,0.787,1.001,1.204,1.241,1.97c-0.819,2.05-2.258,3.422-4.4,4.025
		c-1.499,0.275-3.009,0.5-4.518,0.164c-2.801-0.624-4.722-2.91-5.263-6.154c-0.203-1.219-0.385-2.461-0.894-3.587
		c-0.415-0.918-0.009-1.239,0.729-1.567c3.582-1.591,7.352-2.309,11.215-1.846c3.137,0.375,6.09,0.243,9-1.062
		c1-0.448,2.15-0.576,3.24-0.812C49.711,27.211,50.464,27.12,51.211,26.999z M55.616,35.787c0.509-1.156,0.616-2.379,0.486-3.608
		c-0.169-1.597-1.446-3.494-3.711-3.129c-2.259-0.152-4.345,0.41-6.266,1.58c-0.579,0.353-1.133,0.784-1.216,1.541
		c-0.349,3.189,2.053,6.049,5.252,6.194c1.241,0.056,2.464-0.149,3.601-0.709C54.657,37.308,55.322,36.731,55.616,35.787z"/>
	<path fill-rule="evenodd" clip-rule="evenodd" fill="#FDEEC2" d="M95.887,114.505c0.149-0.164-0.092-0.978,0.544-0.326
		c0.411,0.422,0.79,0.883,1.239,1.261c0.804,0.677,1.764,1.034,2.748,0.553c1.065-0.52,1.642-1.449,1.58-2.697
		c-0.012-0.235,0.023-0.473,0.037-0.709c0.824,2.843,1.162,5.745,1.257,8.703c0.029,0.908,0.356,1.828,0.433,2.779
		c0.071,0.886-0.059,1.724-0.137,2.582c-0.523-0.075-1.047-0.151-1.57-0.227c-1.09-0.364-2.134-0.248-3.135,0.304
		c-0.699,0.079-1.238,0.438-1.688,0.957c-0.24,0.162-0.48,0.325-0.72,0.487c-0.227,0.041-0.251,0.231-0.3,0.404l0.025,0.043
		c-0.081,0.076-0.162,0.151-0.243,0.226c-0.491,0.48-0.684,1.123-0.942,1.73c-1.091,0.095-1.207-1.018-1.724-1.541
		c-2.467-2.492-4.698-5.206-6.878-7.956c-0.189-0.238-0.261-0.481-0.271-0.765c2.378,1.437,4.774,0.813,4.591-2.794
		c-0.019-0.36-0.184-0.8,0.233-1.087c0.387,0.271,0.758,0.569,1.163,0.81C93.871,118.281,96.042,117.354,95.887,114.505z"/>
	<path fill-rule="evenodd" clip-rule="evenodd" fill="#FCDE65" d="M90.967,116.433c-0.417,0.287-0.252,0.727-0.233,1.087
		c0.184,3.608-2.213,4.231-4.591,2.794c-1.35-1.374-1.964-3.157-2.71-4.867c-2.144-4.918-4.292-9.833-6.433-14.752
		c-0.109-0.252-0.155-0.532-0.23-0.798c3.361,0.596,5.275-1.738,4.148-5.055c-0.05-0.146-0.063-0.305-0.094-0.458
		c0.51,0.274,0.576,0.82,0.778,1.281c1.287,2.932,2.689,5.82,3.827,8.81c1.232,3.238,2.852,6.3,4.083,9.531
		C89.858,114.917,90.664,115.518,90.967,116.433z"/>
	<path fill-rule="evenodd" clip-rule="evenodd" fill="#F3F2F2" d="M41.002,34.333c0.045-0.193,0.064-0.398,0.14-0.579
		c0.149-0.358,0.216-0.857,0.713-0.857c0.452,0,0.658,0.413,0.813,0.784c0.569,1.369,1.332,2.626,2.171,3.841
		c1.861,2.693,4.533,3.163,7.528,2.75c0.236-0.032,0.472-0.066,0.708-0.1c-0.11,0.283-0.219,0.567-0.328,0.851
		c-1.346-0.063-2.099,0.639-2.701,1.804c-0.657,1.273-1.686,2.293-2.789,3.234c-2.166,1.845-4.713,2.733-7.471,3.145
		c-2.218,0.046-4.403-0.096-6.439-1.108c0.266-1.348,0.549-1.494,1.544-0.694c0.367,0.295,0.672,0.499,1.139,0.295
		c-0.404-0.425-1.12-0.591-1.17-1.251c-0.063-0.833,0.831-0.721,1.39-1.053c-1.5-0.419-3.088,1.012-3.121,2.643
		c-0.405-0.225-0.809-0.45-1.214-0.676c0.493-0.475,0.334-1.692,1.554-1.361c0.08,0.022,0.24-0.177,0.334-0.296
		c1.162-1.465,1.55-1.566,3.307-0.761c0.313,0.144,0.565,0.302,0.824-0.045c0.304,0.421,0.608,0.843,0.913,1.264
		c1.02,1.48,2.339,2.041,3.86,1.675c0.379-0.091,0.721-0.195,0.718-0.642c-0.003-0.416-0.37-0.469-0.681-0.537
		c-1.072-0.234-2.042-0.658-2.805-1.477c0.039-0.128,0.077-0.255,0.115-0.383c2.921,0.51,5.396-0.479,7.626-2.278
		c0.293-0.236,0.778-0.48,0.387-0.939c-0.336-0.395-0.709-0.107-1.055,0.123c-2.745,1.83-5.559,2.758-8.588,0.61
		c-1.469,0.133-0.649,1.194-0.76,1.877c-0.889-0.479-1.438-1.34-2.202-1.959c2.142-0.603,3.582-1.975,4.4-4.025
		C40.515,36.996,40.826,35.685,41.002,34.333z M43.45,39.633c-0.427-0.066-0.867-0.187-1.232,0.162
		c-0.128,0.122-0.105,0.285,0.008,0.424c0.35,0.428,0.819,0.439,1.303,0.353c0.146-0.026,0.278-0.126,0.417-0.193
		c0.451-0.232,0.932-0.434,1.197-0.903c0.129-0.228,0.342-0.491,0.062-0.741c-0.271-0.241-0.49-0.057-0.718,0.13
		C44.155,39.137,43.797,39.378,43.45,39.633z M37.599,46.763c-0.067-0.029-0.134-0.058-0.201-0.087
		c-0.029,0.067-0.096,0.147-0.077,0.196c0.018,0.048,0.138,0.1,0.186,0.082C37.555,46.934,37.57,46.831,37.599,46.763z
		 M36.883,45.809c-0.067-0.029-0.149-0.095-0.197-0.076c-0.048,0.019-0.062,0.123-0.091,0.19c0.067,0.029,0.149,0.095,0.197,0.076
		S36.854,45.876,36.883,45.809z"/>
	<path fill-rule="evenodd" clip-rule="evenodd" fill="#3B3B3B" d="M29.542,127.481c0.949-0.654,1.498-1.774,2.611-2.235
		c0.332,0.585,1.157,0.28,1.505,0.834c-0.207,0.184-0.413,0.37-0.621,0.553c-3.237,2.847-5.464,6.302-6.295,10.575
		c-0.311,1.598,0.161,2.078,1.74,1.734c4.209-0.917,7.855-2.982,11.219-5.605c0.619-0.482,0.75-1.016,0.472-1.774
		c-0.772-2.108-1.715-4.106-3.277-5.759c0.599-0.178,1.199-0.356,1.798-0.534c0.548,0.73,1.096,1.461,1.644,2.191
		c0.469,1.043,0.938,2.086,1.406,3.129c-0.029,0.352,0.09,0.662,0.272,0.953c0.053,0.524,0.106,1.049,0.159,1.574
		c-0.375,0.389-0.722,0.797-0.928,1.306c-0.604,0.492-1.333,0.842-1.738,1.556c-0.634,0.084-1.097,0.499-1.602,0.832
		c-0.971,0.541-1.942,1.083-2.914,1.624c-1.879,0.867-3.768,1.72-5.806,2.143c-3.429,0.712-4.742-0.597-4.069-4.044
		c0.167-0.854,0.438-1.688,0.66-2.531c0.458-1.05,0.917-2.101,1.375-3.151c0.495-0.488,0.809-1.092,1.106-1.708
		C28.687,128.589,29.115,128.035,29.542,127.481z"/>
	<path fill-rule="evenodd" clip-rule="evenodd" fill="#3B3B3B" d="M50.645,23.317c0.552,0.027,1.108,0.026,1.656,0.092
		c0.324,0.039,0.613,0.226,0.621,0.61c0.008,0.41-0.298,0.51-0.632,0.56c-0.274,0.041-0.546,0.09-0.82,0.133
		c-1.597,0.246-1.597,0.245-0.963,1.547c-0.865,0.103-1.779,0.616-2.49-0.392c-0.236-0.335-0.554-0.122-0.854,0.026
		c-0.714,0.354-1.444,0.678-2.174,0.999c-0.264,0.115-0.553,0.172-0.748-0.128c-0.182-0.282-0.063-0.515,0.132-0.754
		c0.508-0.625,1.202-1.026,1.865-1.493c-5.051-3.895-13.693-3.304-18.228,2.679c-0.023,0.031,0.042,0.129,0.065,0.196l0.021-0.014
		c-0.337,0.041-0.591,0.123-0.249,0.501l0.007-0.021c-0.561-0.182-0.678,0.342-0.771,0.618c-0.481,1.41-1.654,1.882-3.025,2.334
		c0.987-2.835,2.56-5.136,4.773-7.028c0.278-0.238,0.993-0.269,0.695-0.959l-0.021,0.019c0.163,0.364,0.381,0.157,0.563,0.038
		c3.68-2.422,7.696-3.034,11.977-2.244c1.445,0.426,2.95,0.799,4.149,1.712C47.573,23.401,48.97,23.864,50.645,23.317z"/>
	<path fill-rule="evenodd" clip-rule="evenodd" fill="#A8A7A6" d="M39.509,135.979c0.405-0.713,1.135-1.064,1.738-1.555
		c2.959-0.275,5.918-0.55,8.962-0.832c-1.652-0.288-3.236-0.325-4.825-0.347c-1.069-0.014-2.15,0.158-3.209-0.128
		c-0.053-0.524-0.106-1.049-0.159-1.574c3.868,0.001,7.737-0.108,11.599,0.25c2.821,0.262,5.611,0.688,8.348,1.436
		c0.553,0.151,0.995,0.39,0.902,1.047c-0.1,0.708-0.644,0.684-1.19,0.66c-5.709-0.257-11.384,0.031-17.05,0.844
		C42.958,136.018,41.227,136.265,39.509,135.979z"/>
	<path fill-rule="evenodd" clip-rule="evenodd" fill="#3B3B3B" d="M83.283,70.788c-1.691,0.725-3.395,1.363-5.28,0.782
		c-1.528-0.949-2.023-2.35-1.783-4.073c0.304-1.18,0.919-2.172,1.767-3.043c1.016-1.043,1.785-2.223,1.848-3.743
		c0.097-0.646,0.315-1.247,1.113-1.078c0.708,0.15,0.696,0.791,0.637,1.364c-0.184,1.777-0.959,3.281-2.208,4.533
		c-0.634,0.636-1.152,1.334-1.385,2.198c-0.354,1.308,0.437,2.537,1.583,2.341c1.727-0.296,3.436-0.745,4.933-1.728
		c0.866-0.569,1.271-1.377,1.199-2.444c-0.105-1.567-0.541-3.053-0.975-4.547c-0.874-3.001-2.832-3.807-5.512-2.239
		c-0.463-0.44-0.605-1.019-0.696-1.62c1.443-0.838,2.966-1.103,4.589-0.63c1.125,0.328,2.077,0.982,2.53,2.035
		c1.072,2.493,1.893,5.068,1.694,7.848c-0.115,0.026-0.258,0.019-0.34,0.085c-1.25,1.008-2.161,2.384-3.544,3.257
		C83.339,70.158,83.014,70.478,83.283,70.788z"/>
	<path fill-rule="evenodd" clip-rule="evenodd" fill="#3B3B3B" d="M96.176,128.577c0.049-0.172,0.074-0.363,0.3-0.404
		c0.562,0.324,0.908,0.866,1.351,1.312c0.226,0.227,0.553,0.607,0.9,0.234c0.314-0.338-0.109-0.554-0.302-0.767
		c-0.396-0.434-0.817-0.846-1.228-1.266c0.45-0.519,0.989-0.878,1.688-0.957c1.092,1.165,2.141,1.063,3.135-0.304
		c0.523,0.076,1.046,0.151,1.57,0.227c0.334,2.775,0.284,5.539-0.415,8.253c-0.289,1.123-0.919,1.36-1.998,0.833
		c-1.732-0.846-3.152-2.122-4.533-3.44C97.479,130.933,96.725,129.768,96.176,128.577z"/>
	<path fill-rule="evenodd" clip-rule="evenodd" fill="#FCDE65" d="M50.645,23.317c-1.675,0.547-3.072,0.084-4.453-0.967
		c-1.199-0.914-2.704-1.287-4.149-1.712c-0.626-1.338-0.52-2.543,0.646-3.556c0.575-0.098,1.157-0.168,1.725-0.3
		c0.699-0.162,1.133-0.532,0.829-1.336c0.342-0.42,0.719-0.784,1.305-0.81c0.108,1.335,0.8,2.482,1.308,3.664
		c0.572,1.332,1.062,2.719,1.867,3.956C49.988,22.664,50.302,22.994,50.645,23.317z"/>
	<path fill-rule="evenodd" clip-rule="evenodd" fill="#A8A7A6" d="M29.542,127.481c-0.428,0.554-0.855,1.108-1.283,1.662
		c-3.717,0.017-7.433,0.021-11.149,0.058c-1.355,0.014-2.71,0.106-4.065,0.161c-0.519,0.021-1.013-0.044-1.003-0.714
		c0.009-0.598,0.315-0.931,0.971-0.962C18.521,127.419,24.031,127.375,29.542,127.481z"/>
	<path fill-rule="evenodd" clip-rule="evenodd" fill="#3B3B3B" d="M45.242,15.444c0.304,0.805-0.13,1.174-0.829,1.336
		c-0.567,0.132-1.149,0.202-1.725,0.3c-2.868-0.303-5.337,0.565-7.452,2.508c-0.399,0.367-0.83,0.889-1.434,0.367
		c-0.662-0.571-0.268-1.155,0.098-1.693c0.647-0.951,1.557-1.608,2.579-2.076c2.167-0.992,4.452-1.456,6.845-1.337
		C44.017,14.885,44.655,15.077,45.242,15.444z"/>
	<path fill-rule="evenodd" clip-rule="evenodd" fill="#3E3E3E" d="M30.477,19.086c0.409-4.111,2.56-7.077,6.215-8.973
		c0.63-0.327,1.59-0.828,2.065-0.043c0.572,0.944-0.547,1.275-1.126,1.614c-3.067,1.798-5.089,4.296-5.548,7.908
		c-0.072,0.57-0.292,1.066-0.949,0.978C30.231,20.448,30.577,19.676,30.477,19.086z"/>
	<path fill-rule="evenodd" clip-rule="evenodd" fill="#A8A7A6" d="M27.154,130.85c-0.458,1.05-0.917,2.101-1.375,3.151
		c-0.322-0.453-0.8-0.264-1.213-0.271c-2.268-0.039-4.537-0.018-6.798-0.246c-0.565-0.057-1.158-0.026-1.195-0.832
		c-0.037-0.796,0.481-0.853,1.093-0.907C20.83,131.463,23.991,131.151,27.154,130.85z"/>
	<path fill-rule="evenodd" clip-rule="evenodd" fill="#3E3E3E" d="M29.525,22.825c-0.834,0.125-1.326-0.288-1.635-1.02
		c-0.954-2.254-0.748-4.509,0.003-6.756c0.175-0.522,0.53-0.914,1.167-0.74c0.583,0.159,0.664,0.655,0.619,1.147
		c-0.048,0.512-0.16,1.021-0.281,1.522c-0.361,1.501-0.505,3,0.248,4.419c0.3,0.565-0.042,0.972-0.142,1.447
		C29.504,22.844,29.525,22.825,29.525,22.825z"/>
	<path fill-rule="evenodd" clip-rule="evenodd" fill="#3B3B3B" d="M28.073,27.393c1.265-0.549,2.363-1.429,3.71-1.826
		c1.183-0.348,2.328-0.828,3.61-0.629c0.41,0.064,0.763,0.212,1.103,0.421c0.255,0.157,0.412,0.397,0.36,0.697
		c-0.056,0.325-0.31,0.448-0.623,0.435c-2.361-0.102-4.432,0.823-6.496,1.8c-0.707,0.334-1.443,0.526-1.884-0.431l-0.007,0.021
		c0.328-0.045,0.457-0.19,0.249-0.501L28.073,27.393z"/>
	<path fill-rule="evenodd" clip-rule="evenodd" fill="#A8A7A6" d="M59.803,129.411c-0.057-0.673-0.25-1.309-0.539-1.917
		c2.475-0.071,4.95-0.155,7.425-0.205c0.608-0.012,1.417-0.171,1.463,0.783c0.045,0.944-0.676,1.028-1.409,1.042
		C64.427,129.154,62.109,129.151,59.803,129.411z"/>
	<path fill-rule="evenodd" clip-rule="evenodd" fill="#A8A7A6" d="M34.994,138.434c0.971-0.541,1.942-1.083,2.914-1.624
		c1.562,0.69,3.274,0.375,4.886,0.734c0.271,0.06,0.559,0.04,0.831,0.097c0.487,0.102,0.793,0.398,0.758,0.918
		c-0.04,0.585-0.466,0.68-0.946,0.646c-1.352-0.094-2.705-0.174-4.054-0.299C37.917,138.772,36.456,138.594,34.994,138.434z"/>
	<path fill-rule="evenodd" clip-rule="evenodd" fill="#A8A7A6" d="M41.745,130.59c-0.469-1.043-0.938-2.086-1.406-3.129
		c1.507-0.004,3.015-0.009,4.522-0.013c0.124,1.032,0.038,2.139,1.017,2.868C44.5,130.407,43.122,130.499,41.745,130.59z"/>
	<path fill-rule="evenodd" clip-rule="evenodd" fill="#3B3B3B" d="M34.241,120.512c0.018-0.148,0.035-0.295,0.053-0.443
		c-0.005-0.271-0.011-0.542-0.016-0.813c0.038-0.616,0.076-1.232,0.114-1.849c0.447-0.622,0.971-1.146,1.733-1.37
		c0.423-0.124,0.799-0.156,0.879,0.426c-0.009,1.359-0.168,2.7-0.49,4.021C35.768,121.461,35,120.605,34.241,120.512z"/>
	<path fill-rule="evenodd" clip-rule="evenodd" fill="#7E7E7E" d="M33.659,126.08c-0.349-0.555-1.174-0.25-1.505-0.834
		c0.332-0.844,1.503-0.776,1.8-1.658c0.869,0.305,1.738,0.563,2.599-0.024c0.8,0.46,1.552,0.982,2.142,1.707
		c-0.599,0.178-1.199,0.356-1.798,0.534c-0.212-0.036-0.387-0.004-0.442,0.244c-0.896-0.003-1.792-0.006-2.688-0.009
		C33.746,126.091,33.71,126.105,33.659,126.08z"/>
	<path fill-rule="evenodd" clip-rule="evenodd" fill="#7E7E7E" d="M37.004,116.464c-0.08-0.582-0.457-0.55-0.879-0.426
		c-0.763,0.224-1.286,0.748-1.733,1.37c0.088-1.059,0.177-2.119,0.266-3.178c0.84-0.194,1.653-0.536,2.543-0.447
		C37.161,114.678,37.301,115.587,37.004,116.464z"/>
	<path fill-rule="evenodd" clip-rule="evenodd" fill="#7E7E7E" d="M35.266,108.243c0.046,1.525,0.046,1.525,2.398,1.453
		c-0.082,0.81-0.164,1.62-0.246,2.43c-0.848,0.005-1.695,0.009-2.543,0.014C35.104,110.85,34.849,109.513,35.266,108.243z"/>
	<path fill-rule="evenodd" clip-rule="evenodd" fill="#555555" d="M83.283,70.788c-0.269-0.311,0.056-0.63,0.17-0.702
		c1.383-0.874,2.294-2.25,3.544-3.257c0.083-0.066,0.226-0.059,0.34-0.085c-0.004,2.162-1.695,2.934-3.188,3.868
		C83.86,70.67,83.571,70.729,83.283,70.788z"/>
	<path fill-rule="evenodd" clip-rule="evenodd" fill="#3B3B3B" d="M36.553,123.563c-0.861,0.587-1.73,0.33-2.599,0.024
		c0.015-0.221,0.03-0.442,0.045-0.664c0.166-0.25,0.135-0.513,0.048-0.778c-0.011-0.072-0.004-0.141,0.021-0.209
		c0.846,0.009,1.691,0.018,2.537,0.027c0.001,0.148,0.003,0.297,0.004,0.446c-0.177,0.249-0.178,0.513-0.07,0.787
		C36.544,123.318,36.549,123.441,36.553,123.563z"/>
	<path fill-rule="evenodd" clip-rule="evenodd" fill="#696868" d="M40.055,44.798c-0.038,0.127-0.076,0.255-0.115,0.383
		c-0.735-0.086-0.583,0.815-1.093,0.981c-0.304-0.421-0.608-0.843-0.913-1.264c-0.09-0.235-0.18-0.47-0.271-0.706
		c0.111-0.683-0.708-1.744,0.76-1.877C38.365,43.538,39.193,44.179,40.055,44.798z"/>
	<path fill-rule="evenodd" clip-rule="evenodd" fill="#696868" d="M96.176,128.577c0.549,1.191,1.303,2.356,0.468,3.721
		c-0.557-0.56-1.349-0.898-1.627-1.722c0.258-0.607,0.451-1.25,0.942-1.73c0.064,0.087,0.14,0.225,0.248,0.099
		c0.053-0.062,0-0.213-0.004-0.325L96.176,128.577z"/>
	<path fill-rule="evenodd" clip-rule="evenodd" fill="#3B3B3B" d="M34.875,112.139c0.848-0.004,1.695-0.009,2.543-0.014
		c-0.072,0.552-0.145,1.105-0.217,1.657c-0.89-0.089-1.704,0.252-2.543,0.447c0.021-0.222,0.042-0.443,0.064-0.665
		c0.136-0.166,0.134-0.345,0.053-0.533C34.808,112.734,34.841,112.437,34.875,112.139z"/>
	<path fill-rule="evenodd" clip-rule="evenodd" fill="#7E7E7E" d="M36.605,121.963c-0.846-0.009-1.691-0.018-2.537-0.027
		c0.019-0.479-0.08-0.973,0.172-1.424c0.759,0.093,1.527,0.949,2.273-0.027C36.886,120.957,36.63,121.467,36.605,121.963z"/>
	<path fill-rule="evenodd" clip-rule="evenodd" fill="#696868" d="M157.199,153.654c1.143-0.135,2.279-0.233,3.263,0.673
		c-1.344-0.077-2.679-0.629-4.03-0.184C156.758,154.09,157.061,154.003,157.199,153.654z"/>
	<path fill-rule="evenodd" clip-rule="evenodd" fill="#555555" d="M157.199,153.654c-0.139,0.349-0.441,0.436-0.768,0.489
		c-0.518,0.142-0.906-0.271-1.379-0.319c-0.131-0.239-0.578-0.249-0.477-0.657C155.45,153.33,156.324,153.492,157.199,153.654z"/>
	<path fill-rule="evenodd" clip-rule="evenodd" fill="#7E7E7E" d="M152.384,154.022c0.011-0.215,0.021-0.43,0.03-0.646
		c0.459-0.274,0.964-0.164,1.455-0.167c0.028,0.39-0.261,0.601-0.478,0.853C153.052,154.148,152.716,154.144,152.384,154.022z"/>
	<path fill-rule="evenodd" clip-rule="evenodd" fill="#555555" d="M153.392,154.063c0.217-0.252,0.506-0.463,0.478-0.853
		c0.066-0.036,0.135-0.042,0.205-0.016c-0.114,0.721,0.391,0.69,0.857,0.707C154.465,154.399,153.902,153.984,153.392,154.063z"/>
	<path fill-rule="evenodd" clip-rule="evenodd" fill="#7E7E7E" d="M154.932,153.9c-0.467-0.016-0.972,0.014-0.857-0.707
		c0.168-0.009,0.334-0.018,0.502-0.026c-0.102,0.408,0.346,0.417,0.477,0.657l-0.031,0.086L154.932,153.9z"/>
	<path fill-rule="evenodd" clip-rule="evenodd" fill="#7E7E7E" d="M34.277,119.256c0.005,0.271,0.011,0.542,0.016,0.813
		C34.11,119.801,34.094,119.531,34.277,119.256z"/>
	<path fill-rule="evenodd" clip-rule="evenodd" fill="#7E7E7E" d="M34.047,122.146c0.086,0.266,0.117,0.528-0.048,0.778
		C33.885,122.656,33.895,122.396,34.047,122.146z"/>
	<path fill-rule="evenodd" clip-rule="evenodd" fill="#7E7E7E" d="M34.774,113.032c0.081,0.188,0.083,0.367-0.053,0.533
		C34.599,113.373,34.664,113.2,34.774,113.032z"/>
	<path fill-rule="evenodd" clip-rule="evenodd" fill="#555555" d="M132.261,152.671c-0.02-0.136-0.088-0.198-0.229-0.151
		c0.165,0.183,0.185,0.014,0.229-0.095l-0.018-0.01c-0.024,0.029-0.072,0.063-0.067,0.087c0.01,0.061,0.043,0.119,0.068,0.177
		L132.261,152.671z"/>
	<path fill-rule="evenodd" clip-rule="evenodd" fill="#555555" d="M104.216,151.424c-0.156,0.074-0.196-0.02-0.205-0.147
		c-0.002-0.034,0.023-0.07,0.035-0.105c0.049,0.093,0.098,0.186,0.147,0.278C104.194,151.448,104.216,151.424,104.216,151.424z"/>
	<path fill-rule="evenodd" clip-rule="evenodd" fill="#7E7E7E" d="M149.865,153.546c-0.129,0.015-0.258,0.031-0.387,0.046
		C149.596,153.485,149.722,153.442,149.865,153.546z"/>
	<path fill-rule="evenodd" clip-rule="evenodd" fill="#FCFBFC" d="M36.605,121.963c0.025-0.496,0.281-1.007-0.091-1.479
		c0.322-1.321,0.481-2.662,0.49-4.021c0.297-0.876,0.157-1.786,0.196-2.681c0.072-0.552,0.145-1.105,0.217-1.657
		c0.082-0.81,0.164-1.62,0.246-2.43c0.749-6.541,1.491-13.082,2.881-19.529c0.11-0.512,0.178-0.886,0.865-0.849
		c2.625,0.14,5.147-0.474,7.652-1.152c0.609-0.165,0.935-0.211,0.857,0.636c-0.915,9.985-1.254,20.001-1.545,30.02
		c-0.02,0.69-0.01,1.125-0.944,1.376c-1.163,0.313-1.697,1.5-2.064,2.628c-0.489,1.502-0.477,3.066-0.506,4.623
		c-1.507,0.004-3.015,0.009-4.522,0.013c-0.548-0.73-1.096-1.461-1.644-2.191c-0.59-0.724-1.341-1.246-2.142-1.707
		c-0.004-0.122-0.008-0.245-0.013-0.367c0.126-0.253,0.208-0.511,0.07-0.787C36.608,122.26,36.607,122.112,36.605,121.963z"/>
	<path fill-rule="evenodd" clip-rule="evenodd" fill="#FCDE65" d="M52.746,41.023c0.109-0.283,0.219-0.567,0.329-0.85
		c1.322-0.407,2.51-1.047,3.505-2.021c0.711,1.737,1.291,3.544,2.166,5.195c1.208,2.279,2.052,4.706,3.116,7.041
		c1.418,3.112,2.716,6.278,4.073,9.418c2.16,5.001,4.297,10.013,6.501,14.994c1.1,2.485,2.295,4.927,3.194,7.497
		c-1.404,0.183-2.778-0.024-4.135-0.353c-0.93-0.225-1.855-0.445-2.821-0.404c-1.654-3.835-3.308-7.671-4.96-11.507
		c-0.361-0.799-0.572-1.669-1.116-2.383c-1.345-3.132-2.682-6.268-4.038-9.395c-2.182-5.033-4.376-10.061-6.565-15.091
		C52.173,42.424,52.833,41.855,52.746,41.023z"/>
	<path fill-rule="evenodd" clip-rule="evenodd" fill="#F9F9F8" d="M49.459,61.32c-0.05,2.673-0.313,4.998-1.214,7.22
		c-0.359,0.885-0.584,1.287-1.585,0.443c-3.508-2.959-7.126-5.789-10.693-8.68c-0.731-0.592-1.517-0.934-2.178-0.064
		c-0.628,0.827-0.2,1.505,0.563,2.115c3.616,2.889,7.188,5.833,10.809,8.716c0.638,0.508,0.553,0.674-0.095,1.024
		c-2.587,1.394-5.831,0.672-8.073-1.898c-2.114-2.424-3.39-5.299-4.229-8.366c-0.397-1.451,0.12-2.648,1.366-3.545
		c2.018-1.452,4.403-1.805,6.74-2.277c1.485-0.301,2.994-0.488,4.523-0.381c2.566,0.179,3.58,1.085,3.918,3.609
		C49.416,60.024,49.426,60.826,49.459,61.32z"/>
	<path fill-rule="evenodd" clip-rule="evenodd" fill="#FCFBFC" d="M51.994,43.163c2.189,5.03,4.383,10.058,6.565,15.091
		c1.356,3.127,2.693,6.263,4.038,9.395c-0.769,0.198-1.412-0.125-2.028-0.514c-1.802-1.133-3.351-2.583-4.946-3.975
		c-0.208-0.182-0.416-0.363-0.624-0.544c-0.798-0.834-1.602-1.662-2.391-2.504c-0.868-0.926-1.631-1.875-2.098-3.128
		c-0.835-2.242-3.313-3.36-6.406-3.136c-0.716,0.052-1.443,0.075-2.141,0.226c-0.65,0.141-0.948-0.044-1.064-0.678
		c-0.123-0.666-0.25-1.337-0.456-1.98c-0.139-0.433,0.087-0.565,0.376-0.718c0.955-0.076,1.879-0.293,2.785-0.601
		C47.282,48.85,49.957,46.393,51.994,43.163z"/>
	<path fill-rule="evenodd" clip-rule="evenodd" fill="#FCFBFC" d="M63.713,70.033c1.653,3.835,3.307,7.671,4.961,11.506
		c-1.062,0.228-1.971,0.759-2.51,1.686c-0.516,0.887-0.933,0.393-1.379,0.043c-4.297-3.37-8.589-6.748-12.879-10.126
		c-0.877-0.691-2.012-1.24-2.537-2.141c-0.591-1.014,0.642-1.949,0.928-2.98c0.492-1.775,0.722-3.566,0.896-5.53
		c0.739,0.683,1.393,1.286,2.045,1.889c0.109,0.229,0.276,0.395,0.517,0.481c1.3,1.398,2.786,2.581,4.332,3.687
		c0.955,0.684,1.874,1.469,3.126,1.575c0.076,0.01,0.152,0.019,0.228,0.029l0.056,0.046l0.065-0.032
		c0.383,0.257,0.755,0.099,1.127-0.031C63.03,70.101,63.372,70.066,63.713,70.033z"/>
	<path fill-rule="evenodd" clip-rule="evenodd" fill="#F9F9F8" d="M72.036,86.81c2.682,2.674,4.801,5.503,6.968,8.294
		c0.509,0.655,0.576,1.298,0.38,2.006c-0.343,1.247-0.95,1.496-2.086,0.893c-3.139-1.664-6.063-3.655-8.991-5.665
		c-2.637-1.811-2.004-6.771-0.559-8.345c0.596-0.65,1.343-0.867,2.176-0.642c1.938,0.524,3.893,0.879,5.908,0.705
		c0.569-0.049,0.673,0.263,0.728,0.699c0.124,0.987-0.438,1.785-1.472,1.979c-0.463,0.087-0.95,0.061-1.426,0.072
		C73.201,86.818,72.74,86.81,72.036,86.81z"/>
	<path fill-rule="evenodd" clip-rule="evenodd" fill="#FCFBFC" d="M39.604,85.305c0.123-4.657,3.854-7.624,7.996-6.281
		c2.421,0.785,3.632,2.762,4.363,5.034c0.272,0.849-0.559,1.268-1.164,1.605c-1.228,0.685-2.593,1.006-3.963,1.282
		c-1.64,0.33-3.27,0.738-4.96,0.699C39.951,87.599,39.554,87.182,39.604,85.305z"/>
	<path fill-rule="evenodd" clip-rule="evenodd" fill="#F9F9F8" d="M48.107,121.911c0.61,1.775,1.062,1.936,2.625,0.89
		c0.242-0.162,0.43-0.16,0.652-0.049c2.841,1.421,5.182,3.364,6.727,6.386c-2.875,0.384-5.617,0.41-8.336,0.112
		c-3.479-0.382-3.233,0.064-3.135-3.896C46.684,123.605,47.202,122.573,48.107,121.911z"/>
	<path fill-rule="evenodd" clip-rule="evenodd" fill="#3E3E3E" d="M51.994,43.163c-2.037,3.23-4.712,5.687-8.389,6.935
		c-0.906,0.308-1.83,0.525-2.785,0.601c0.392-1.008-0.312-1.256-1.035-1.492c2.758-0.412,5.306-1.3,7.471-3.145
		c1.104-0.941,2.132-1.961,2.789-3.234c0.602-1.165,1.354-1.867,2.701-1.804C52.833,41.855,52.173,42.424,51.994,43.163z"/>
	<path fill-rule="evenodd" clip-rule="evenodd" fill="#FCDE65" d="M77.945,86.813c0.36,1.824,1.342,3.401,2.058,5.082
		c0.351,0.825,0.522,1.688,0.8,2.525c-1.521-1.879-3.033-3.766-4.571-5.631c-0.316-0.384-0.182-0.536,0.188-0.679
		C77.08,87.856,77.469,87.284,77.945,86.813z"/>
	<path fill-rule="evenodd" clip-rule="evenodd" fill="#FEFEFE" d="M33.129,48.037c0.033-1.631,1.622-3.062,3.121-2.643
		c-0.559,0.332-1.453,0.22-1.39,1.053c0.05,0.661,0.766,0.827,1.17,1.251c-0.467,0.204-0.772,0-1.139-0.295
		c-0.995-0.8-1.278-0.654-1.544,0.694C33.274,48.078,33.202,48.058,33.129,48.037z"/>
	<path fill-rule="evenodd" clip-rule="evenodd" fill="#555555" d="M55,62.617c0.208,0.181,0.416,0.362,0.624,0.544
		c-0.229,0.092-0.795,0.004-0.319,0.498c0.271,0.281,0.625,0.478,0.625,0.931c-0.624,0.048-0.813-0.773-1.44-0.72l0.001,0.001
		C54.331,63.318,54.82,63.03,55,62.617z"/>
	<path fill-rule="evenodd" clip-rule="evenodd" fill="#555555" d="M47.746,70.329c0.099-0.592,0.534-0.854,1.012-1.075
		c-0.079,0.597-0.51,0.87-0.967,1.121L47.746,70.329z"/>
	<path fill-rule="evenodd" clip-rule="evenodd" fill="#555555" d="M53.754,64.86c-0.241-0.087-0.408-0.253-0.517-0.481
		c0.401-0.21,0.716-0.633,1.253-0.509l-0.001-0.001C54.245,64.199,54,64.53,53.754,64.86z"/>
	<path fill-rule="evenodd" clip-rule="evenodd" fill="#555555" d="M46.806,71.56c-0.072-0.162-0.17-0.288-0.141-0.333
		c0.077-0.121,0.195-0.263,0.321-0.293c0.227-0.054,0.257,0.135,0.179,0.284C47.102,71.337,46.962,71.417,46.806,71.56z"/>
	<path fill-rule="evenodd" clip-rule="evenodd" fill="#555555" d="M53.521,62.197c-0.307-0.014-0.465-0.176-0.479-0.481
		c0,0,0.016-0.015,0.016-0.015c0.323-0.002,0.481,0.16,0.481,0.481L53.521,62.197z"/>
	<path fill-rule="evenodd" clip-rule="evenodd" fill="#555555" d="M52.586,61.209c0.292,0.035,0.461,0.187,0.472,0.492
		c0,0-0.015,0.015-0.016,0.015c-0.303-0.01-0.465-0.168-0.495-0.468L52.586,61.209z"/>
	<path fill-rule="evenodd" clip-rule="evenodd" fill="#555555" d="M53.54,62.182c0.061,0.088,0.124,0.175,0.18,0.267
		c0.001,0.003-0.058,0.043-0.088,0.067c-0.036-0.106-0.073-0.212-0.109-0.318L53.54,62.182z"/>
	<path fill-rule="evenodd" clip-rule="evenodd" fill="#555555" d="M52.547,61.248c-0.031-0.044-0.062-0.088-0.093-0.132
		c0.044,0.031,0.088,0.063,0.132,0.093C52.586,61.209,52.547,61.248,52.547,61.248z"/>
	<path fill-rule="evenodd" clip-rule="evenodd" fill="#555555" d="M47.791,70.375c-0.044,0.029-0.089,0.058-0.134,0.087
		c0.03-0.044,0.06-0.088,0.089-0.132C47.746,70.329,47.791,70.375,47.791,70.375z"/>
	<path fill-rule="evenodd" clip-rule="evenodd" fill="#F9F9F8" d="M79.22,59.11c2.68-1.567,4.638-0.762,5.512,2.239
		c0.435,1.494,0.87,2.98,0.975,4.547c0.072,1.067-0.333,1.875-1.199,2.444c-1.497,0.983-3.206,1.432-4.933,1.728
		c-1.146,0.196-1.938-1.033-1.583-2.341c0.233-0.863,0.751-1.562,1.385-2.198c1.249-1.252,2.024-2.756,2.208-4.533
		c0.06-0.574,0.071-1.214-0.637-1.364c-0.798-0.169-1.017,0.431-1.113,1.078C79.673,60.161,79.231,59.718,79.22,59.11z"/>
	<path fill-rule="evenodd" clip-rule="evenodd" fill="#F3F2F2" d="M116.062,151.761c-1.185,0.91-2.047,0.41-2.916,0
		C114.017,151.761,114.888,151.761,116.062,151.761z"/>
	<path fill-rule="evenodd" clip-rule="evenodd" fill="#FEFEFE" d="M131.844,156.313c0.925-0.331,1.558-0.106,2.162,0.256
		c0.023,0.013-0.002,0.186-0.029,0.193C133.262,156.947,132.64,156.697,131.844,156.313z"/>
	<path fill-rule="evenodd" clip-rule="evenodd" fill="#FEFEFE" d="M104.684,151.438c0.208,0.14,0.622,0.292,0.354,0.557
		c-0.294,0.292-0.375-0.198-0.545-0.353C104.556,151.573,104.62,151.505,104.684,151.438z"/>
	<path fill-rule="evenodd" clip-rule="evenodd" fill="#FEFEFE" d="M132.129,155.216c-0.181,0.139-0.412,0.286-0.575,0.07
		c-0.149-0.197,0.1-0.292,0.249-0.382C131.912,155.008,132.021,155.112,132.129,155.216z"/>
	<path fill-rule="evenodd" clip-rule="evenodd" fill="#FEFEFE" d="M132.244,152.681c-0.024-0.059-0.058-0.116-0.068-0.177
		c-0.004-0.025,0.043-0.058,0.067-0.087c0.085,0.045,0.17,0.09,0.254,0.136C132.413,152.595,132.328,152.638,132.244,152.681z"/>
	<path fill-rule="evenodd" clip-rule="evenodd" fill="#F9F9F8" d="M38.739,34.836c-0.009,0.151-0.018,0.303-0.027,0.454
		c-0.03,0.316-0.06,0.632-0.09,0.948l0.001,0.004c-0.142,0.046-0.177,0.144-0.136,0.279c-1.039,3.271-5.144,5.017-8.268,3.518
		c-2.22-1.066-3.244-5.417-1.73-7.349c0.331-0.422,0.76-0.73,1.255-0.888c2.461-0.783,4.941-0.898,7.418-0.072
		c0.896,0.299,1.527,0.859,1.562,1.891C38.728,34.026,38.733,34.431,38.739,34.836z M32.928,35.025
		c0.105,0.48,0.192,1.033,0.353,1.563c0.144,0.479,0.531,0.721,1.022,0.632c0.566-0.103,0.783-0.542,0.727-1.071
		c-0.05-0.472-0.172-0.939-0.295-1.4c-0.137-0.516-0.116-1.216-0.926-1.158C32.949,33.651,33.094,34.404,32.928,35.025z"/>
	<path fill-rule="evenodd" clip-rule="evenodd" fill="#F3F2F2" d="M53.761,37.654c-1.137,0.56-2.36,0.766-3.601,0.709
		c-3.199-0.146-5.601-3.005-5.252-6.194c0.083-0.757,0.638-1.188,1.216-1.541c1.921-1.169,4.007-1.731,6.266-1.58
		c0.085,0.239,0.171,0.478,0.256,0.717c-0.318,0.01-0.636,0.038-0.953,0.025c-0.558-0.022-0.834,0.09-0.544,0.734
		c0.848,1.887,1.108,3.884,0.958,5.933c-0.051,0.702,0.109,0.989,0.836,0.669c0.214-0.094,0.455-0.129,0.684-0.192
		C53.817,37.148,53.761,37.407,53.761,37.654z M46.792,34.121c-0.019,0.564,0.037,1.108,0.655,1.342
		c0.434,0.164,0.828,0.082,1.065-0.377c0.437-0.586,0.045-1.153-0.088-1.697c-0.136-0.553,0.084-1.497-0.789-1.484
		c-0.971,0.015-0.779,1.01-0.942,1.651C46.649,33.725,46.754,33.931,46.792,34.121z"/>
	<path fill-rule="evenodd" clip-rule="evenodd" fill="#F7CD0F" d="M52.647,29.767c-0.085-0.239-0.171-0.479-0.256-0.717
		c2.265-0.364,3.542,1.532,3.711,3.129c0.13,1.229,0.023,2.452-0.486,3.607c-0.477-0.779-0.869-1.591-1.21-2.445
		c-0.229-0.573-0.179-1.411-1.014-1.639C53.161,31.05,53.088,30.337,52.647,29.767z"/>
	<path fill-rule="evenodd" clip-rule="evenodd" fill="#FCDE65" d="M53.392,31.702c0.835,0.228,0.786,1.065,1.014,1.639
		c0.341,0.854,0.734,1.666,1.21,2.445c-0.294,0.945-0.959,1.521-1.855,1.868c0-0.248,0.056-0.506-0.133-0.718
		C54.175,35.164,53.796,33.432,53.392,31.702z"/>
	<path fill-rule="evenodd" clip-rule="evenodd" fill="#696868" d="M38.621,36.238c0.03-0.316,0.06-0.632,0.09-0.948
		c0.702-0.466,1.297-1.189,2.291-0.957c-0.177,1.352-0.488,2.663-1.14,3.875C39.622,37.441,38.828,37.024,38.621,36.238z"/>
	<path fill-rule="evenodd" clip-rule="evenodd" fill="#696868" d="M38.739,34.836c-0.005-0.405-0.011-0.81-0.017-1.215
		C38.983,34.022,38.976,34.428,38.739,34.836z"/>
	<path fill-rule="evenodd" clip-rule="evenodd" fill="#696868" d="M38.486,36.521c-0.041-0.135-0.005-0.233,0.136-0.279
		C38.673,36.382,38.619,36.471,38.486,36.521z"/>
	<path fill-rule="evenodd" clip-rule="evenodd" fill="#767676" d="M102.019,126.425c-0.995,1.368-2.043,1.469-3.135,0.304
		C99.885,126.177,100.929,126.061,102.019,126.425z"/>
	<path fill-rule="evenodd" clip-rule="evenodd" fill="#767676" d="M97.196,127.686c0.411,0.42,0.832,0.832,1.228,1.266
		c0.193,0.212,0.616,0.428,0.302,0.767c-0.347,0.373-0.674-0.008-0.9-0.234c-0.443-0.445-0.789-0.987-1.351-1.312
		C96.716,128.011,96.957,127.848,97.196,127.686z"/>
	<path fill-rule="evenodd" clip-rule="evenodd" fill="#3B3B3B" d="M96.201,128.62c0.005,0.111,0.058,0.263,0.004,0.325
		c-0.108,0.126-0.183-0.011-0.248-0.099C96.039,128.771,96.12,128.695,96.201,128.62z"/>
	<path fill-rule="evenodd" clip-rule="evenodd" fill="#3E3E3E" d="M40.055,44.798c-0.861-0.619-1.689-1.26-1.63-2.483
		c3.03,2.147,5.844,1.22,8.588-0.61c0.346-0.23,0.719-0.518,1.055-0.123c0.391,0.459-0.094,0.703-0.387,0.939
		C45.451,44.319,42.976,45.308,40.055,44.798z"/>
	<path fill-rule="evenodd" clip-rule="evenodd" fill="#3E3E3E" d="M38.847,46.162c0.509-0.166,0.358-1.067,1.093-0.981
		c0.763,0.819,1.733,1.243,2.805,1.477c0.311,0.068,0.678,0.122,0.681,0.537c0.002,0.446-0.339,0.55-0.718,0.642
		C41.187,48.202,39.867,47.642,38.847,46.162z"/>
	<path fill-rule="evenodd" clip-rule="evenodd" fill="#555555" d="M43.45,39.633c0.347-0.255,0.705-0.496,1.036-0.769
		c0.228-0.187,0.447-0.371,0.718-0.13c0.281,0.25,0.067,0.513-0.062,0.741c-0.265,0.469-0.746,0.67-1.197,0.903
		C43.824,40.101,43.407,40.02,43.45,39.633z"/>
	<path fill-rule="evenodd" clip-rule="evenodd" fill="#3E3E3E" d="M43.45,39.633c-0.043,0.386,0.374,0.468,0.495,0.745
		c-0.139,0.066-0.271,0.167-0.417,0.193c-0.484,0.086-0.953,0.075-1.303-0.353c-0.113-0.139-0.136-0.302-0.008-0.424
		C42.583,39.447,43.023,39.567,43.45,39.633z"/>
	<path fill-rule="evenodd" clip-rule="evenodd" fill="#FEFEFE" d="M37.599,46.764c-0.029,0.067-0.044,0.17-0.092,0.19
		c-0.048,0.019-0.167-0.034-0.186-0.082c-0.019-0.049,0.048-0.129,0.077-0.196C37.465,46.705,37.532,46.734,37.599,46.764z"/>
	<path fill-rule="evenodd" clip-rule="evenodd" fill="#FEFEFE" d="M36.883,45.809c-0.029,0.067-0.043,0.171-0.091,0.19
		s-0.13-0.047-0.197-0.076c0.029-0.067,0.043-0.171,0.091-0.19C36.734,45.714,36.815,45.78,36.883,45.809z"/>
	<path fill-rule="evenodd" clip-rule="evenodd" fill="#FCFBFC" d="M33.659,126.08c0.051,0.025,0.087,0.011,0.108-0.042
		c0.057,0.148,0.115,0.297,0.172,0.445c-0.063,0.147,0.024,0.223,0.138,0.284c0.347,0.561,0.845,0.805,1.478,0.595
		c0.606-0.201,0.948-0.639,0.9-1.315c0.056-0.248,0.23-0.279,0.442-0.244c1.562,1.653,2.505,3.651,3.277,5.759
		c0.277,0.758,0.146,1.292-0.472,1.774c-3.364,2.623-7.009,4.688-11.219,5.605c-1.58,0.344-2.051-0.137-1.74-1.734
		c0.832-4.273,3.059-7.728,6.295-10.575C33.246,126.45,33.452,126.264,33.659,126.08z"/>
	<path fill-rule="evenodd" clip-rule="evenodd" fill="#F3F2F2" d="M42.175,133.117c1.06,0.286,2.14,0.114,3.209,0.128
		c1.589,0.022,3.173,0.059,4.825,0.347c-3.044,0.282-6.003,0.557-8.962,0.832C41.454,133.914,41.8,133.505,42.175,133.117z"/>
	<path fill-rule="evenodd" clip-rule="evenodd" fill="#FEFEFE" d="M28.095,27.379c0.208,0.311,0.08,0.456-0.249,0.501
		C27.503,27.501,27.757,27.419,28.095,27.379z"/>
	<path fill-rule="evenodd" clip-rule="evenodd" fill="#3B3B3B" d="M36.454,126.047c0.047,0.676-0.294,1.114-0.9,1.315
		c-0.632,0.21-1.131-0.035-1.478-0.595c-0.046-0.095-0.092-0.189-0.138-0.284c-0.057-0.148-0.115-0.297-0.172-0.445
		C34.663,126.041,35.559,126.044,36.454,126.047z"/>
	<path fill-rule="evenodd" clip-rule="evenodd" fill="#7E7E7E" d="M36.61,122.409c0.138,0.276,0.057,0.534-0.07,0.787
		C36.432,122.922,36.433,122.658,36.61,122.409z"/>
	<path fill-rule="evenodd" clip-rule="evenodd" fill="#3B3B3B" d="M55.93,64.589c0-0.453-0.354-0.65-0.625-0.931
		c-0.476-0.493,0.09-0.406,0.319-0.498c1.595,1.392,3.144,2.842,4.946,3.975c0.617,0.388,1.259,0.711,2.028,0.514
		c0.544,0.714,0.755,1.583,1.116,2.383c-0.342,0.034-0.684,0.068-1.025,0.102c-0.375,0.01-0.751,0.021-1.127,0.031l-0.065,0.032
		l-0.056-0.046c0.008-0.32-0.108-0.529-0.467-0.519l-0.008-0.007c-0.078-0.078-0.156-0.157-0.234-0.235l-0.003-0.002
		c-0.012-0.504-0.369-0.491-0.722-0.481l0.006,0.006c0.019-0.276,0.042-0.554-0.245-0.728l0.006,0.006
		c-0.103-0.194-0.275-0.252-0.481-0.241l-0.005-0.004c0.008-0.326-0.165-0.471-0.477-0.477l-0.001-0.001
		c-0.003-0.315-0.17-0.468-0.479-0.479l0,0c-0.023-0.456-0.254-0.703-0.718-0.718l-0.003-0.003
		c-0.012-0.468-0.267-0.692-0.719-0.719l0.001,0.001c-0.096-0.212-0.284-0.241-0.485-0.244l0.007,0.007
		c0.001-0.202-0.021-0.391-0.241-0.481l-0.003-0.004C56.088,64.748,56.009,64.668,55.93,64.589z"/>
	<path fill-rule="evenodd" clip-rule="evenodd" fill="#3B3B3B" d="M53.754,64.86c0.245-0.331,0.49-0.661,0.735-0.992
		c0.627-0.053,0.816,0.769,1.44,0.72c0.08,0.08,0.159,0.159,0.238,0.238l0.003,0.004c-0.014,0.208,0.046,0.378,0.241,0.481
		l-0.007-0.007c0.108,0.188,0.28,0.25,0.485,0.244l-0.001-0.001c0.021,0.459,0.257,0.702,0.719,0.719l0.003,0.003
		c0.024,0.455,0.251,0.707,0.718,0.718l0,0c-0.002,0.322,0.155,0.483,0.479,0.479l0.001,0.001c-0.003,0.321,0.156,0.479,0.477,0.477
		l0.005,0.004c0.091,0.218,0.278,0.246,0.481,0.241l-0.006-0.006c-0.015,0.275-0.04,0.553,0.245,0.728l-0.006-0.006
		c0.146,0.303,0.364,0.497,0.722,0.481l0.003,0.002c0.078,0.078,0.156,0.157,0.234,0.235l0.008,0.007
		c0.08,0.164,0.159,0.327,0.239,0.49c-1.252-0.106-2.171-0.891-3.126-1.575C56.541,67.441,55.054,66.259,53.754,64.86z"/>
	<path fill-rule="evenodd" clip-rule="evenodd" fill="#555555" d="M61.562,70.166c0.375-0.011,0.751-0.021,1.127-0.031
		C62.316,70.264,61.944,70.422,61.562,70.166z"/>
	<path fill-rule="evenodd" clip-rule="evenodd" fill="#555555" d="M61.213,70.123c-0.08-0.164-0.159-0.327-0.239-0.49
		c0.359-0.01,0.475,0.199,0.467,0.519C61.365,70.142,61.289,70.132,61.213,70.123z"/>
	<path fill-rule="evenodd" clip-rule="evenodd" fill="#3E3E3E" d="M32.928,35.025c0.166-0.622,0.021-1.374,0.88-1.435
		c0.81-0.058,0.789,0.642,0.926,1.158c0.123,0.461,0.245,0.928,0.295,1.4c0.056,0.529-0.161,0.968-0.727,1.071
		c-0.491,0.089-0.878-0.153-1.022-0.632C33.12,36.058,33.033,35.506,32.928,35.025z"/>
	<path fill-rule="evenodd" clip-rule="evenodd" fill="#3E3E3E" d="M53.392,31.702c0.404,1.73,0.783,3.461,0.236,5.234
		c-0.228,0.062-0.469,0.097-0.683,0.191c-0.727,0.32-0.887,0.033-0.836-0.669c0.149-2.049-0.11-4.045-0.958-5.933
		c-0.29-0.644-0.013-0.756,0.544-0.734c0.316,0.013,0.635-0.016,0.953-0.025C53.088,30.337,53.161,31.05,53.392,31.702z"/>
	<path fill-rule="evenodd" clip-rule="evenodd" fill="#3E3E3E" d="M46.792,34.121c-0.037-0.189-0.142-0.396-0.099-0.565
		c0.163-0.642-0.029-1.637,0.942-1.651c0.873-0.013,0.653,0.932,0.789,1.484c0.134,0.544,0.525,1.111,0.088,1.697
		C47.735,35.127,47.6,34.023,46.792,34.121z"/>
	<path fill-rule="evenodd" clip-rule="evenodd" fill="#7E7E7E" d="M46.792,34.121c0.809-0.098,0.943,1.006,1.72,0.965
		c-0.237,0.458-0.632,0.541-1.065,0.377C46.828,35.229,46.773,34.685,46.792,34.121z"/>
	<path fill-rule="evenodd" clip-rule="evenodd" fill="#7E7E7E" d="M33.938,126.483c0.046,0.095,0.092,0.189,0.138,0.284
		C33.962,126.706,33.876,126.63,33.938,126.483z"/>
	<path fill-rule="evenodd" clip-rule="evenodd" fill="#555555" d="M58.33,66.989c-0.467-0.012-0.694-0.264-0.718-0.718
		C58.075,66.286,58.307,66.533,58.33,66.989z"/>
	<path fill-rule="evenodd" clip-rule="evenodd" fill="#555555" d="M57.608,66.268c-0.462-0.018-0.699-0.26-0.719-0.719
		C57.341,65.576,57.596,65.8,57.608,66.268z"/>
	<path fill-rule="evenodd" clip-rule="evenodd" fill="#555555" d="M60.729,69.388c-0.358,0.015-0.576-0.179-0.722-0.481
		C60.36,68.897,60.717,68.884,60.729,69.388z"/>
	<path fill-rule="evenodd" clip-rule="evenodd" fill="#555555" d="M58.809,67.468c-0.324,0.004-0.481-0.157-0.479-0.479
		C58.639,67,58.806,67.153,58.809,67.468z"/>
	<path fill-rule="evenodd" clip-rule="evenodd" fill="#555555" d="M59.288,67.947c-0.321,0.002-0.48-0.156-0.477-0.477
		C59.123,67.476,59.296,67.621,59.288,67.947z"/>
	<path fill-rule="evenodd" clip-rule="evenodd" fill="#555555" d="M60.012,68.913c-0.285-0.175-0.259-0.453-0.245-0.728
		C60.054,68.359,60.031,68.637,60.012,68.913z"/>
	<path fill-rule="evenodd" clip-rule="evenodd" fill="#555555" d="M56.413,65.313c-0.195-0.103-0.255-0.274-0.241-0.481
		C56.392,64.922,56.414,65.111,56.413,65.313z"/>
	<path fill-rule="evenodd" clip-rule="evenodd" fill="#555555" d="M56.891,65.55c-0.205,0.006-0.377-0.055-0.485-0.244
		C56.607,65.309,56.794,65.338,56.891,65.55z"/>
	<path fill-rule="evenodd" clip-rule="evenodd" fill="#555555" d="M59.774,68.191c-0.203,0.005-0.39-0.022-0.481-0.241
		C59.499,67.939,59.671,67.997,59.774,68.191z"/>
	<path fill-rule="evenodd" clip-rule="evenodd" fill="#555555" d="M56.168,64.827c-0.08-0.08-0.159-0.159-0.238-0.238
		C56.009,64.668,56.088,64.748,56.168,64.827z"/>
	<path fill-rule="evenodd" clip-rule="evenodd" fill="#555555" d="M60.966,69.625c-0.078-0.078-0.156-0.157-0.234-0.235
		C60.81,69.468,60.888,69.547,60.966,69.625z"/>
</g>
<text transform="matrix(1 0 0 1 83.1787 32.395)"><tspan x="0" y="0" font-family="'KristenITC-Regular'" font-size="14">Oeps, we zijn bezig dit deel </tspan><tspan x="0" y="16.8" font-family="'KristenITC-Regular'" font-size="14"> van de site te verbeteren. </tspan><tspan x="0" y="50.4" font-family="'KristenITC-Regular'" font-size="14">     Probeer het later nog </tspan><tspan x="0" y="67.2" font-family="'KristenITC-Regular'" font-size="14">                              een keer!</tspan></text>
</svg>
