<?xml version="1.0" encoding="UTF-8"?>
<svg width="21px" height="21px" viewBox="0 0 21 21" version="1.1" xmlns="http://www.w3.org/2000/svg" xmlns:xlink="http://www.w3.org/1999/xlink">
    <!-- Generator: Sketch 43.1 (39012) - http://www.bohemiancoding.com/sketch -->
    <title>phone-icon</title>
    <desc>Created with Sketch.</desc>
    <defs></defs>
    <g id="Page-1" stroke="none" stroke-width="1" fill="none" fill-rule="evenodd">
        <g id="home" transform="translate(-334.000000, -1535.000000)" fill="#FFFFFF">
            <g id="sprite" transform="translate(20.000000, 1535.000000)">
                <g id="phone-icon" transform="translate(314.000000, 0.000000)">
                    <g id="Layer_1">
                        <path d="M20.8874435,16.7275105 L20.7831025,16.4131255 C20.5359791,15.6786088 19.7259414,14.9125481 18.9818473,14.7107197 L16.227772,13.9583661 C15.48091,13.7551757 14.4155335,14.0283954 13.8690941,14.5747908 L12.8723849,15.5715439 C9.2499728,14.5926715 6.40943724,11.7520921 5.43192678,8.13038285 L6.42867992,7.13362971 C6.97511925,6.58719038 7.24829498,5.52321967 7.0451046,4.77635774 L6.29411297,2.0209205 C6.09092259,1.2754205 5.32345607,0.465426778 4.59034519,0.221027197 L4.27596025,0.115324268 C3.54144351,-0.129075314 2.49390377,0.11809205 1.94750837,0.664487448 L0.456508368,2.15684937 C0.190142259,2.42180962 0.0199016736,3.17965481 0.0199016736,3.18242259 C-0.0322468619,7.91620921 1.82392469,12.4769874 5.17241423,15.8255209 C8.51268828,19.165795 13.0563326,21.0192427 17.7764121,20.9794393 C17.8011464,20.9794393 18.5809582,20.8119226 18.8472803,20.5469623 L20.3382803,19.0559623 C20.8846757,18.5095669 21.1317992,17.4620272 20.8874435,16.7275105 Z" id="Shape"></path>
                    </g>
                </g>
            </g>
        </g>
    </g>
</svg>