<?xml version="1.0" encoding="UTF-8"?>
<svg width="21px" height="21px" viewBox="0 0 21 21" version="1.1" xmlns="http://www.w3.org/2000/svg" xmlns:xlink="http://www.w3.org/1999/xlink">
    <!-- Generator: Sketch 43.1 (39012) - http://www.bohemiancoding.com/sketch -->
    <title>fb-icon</title>
    <desc>Created with Sketch.</desc>
    <defs></defs>
    <g id="Page-1" stroke="none" stroke-width="1" fill="none" fill-rule="evenodd">
        <g id="home" transform="translate(-20.000000, -1535.000000)" fill="#FFFFFF">
            <g id="sprite" transform="translate(20.000000, 1535.000000)">
                <g id="fb-icon">
                    <g id="White">
                        <g id="Layer_2">
                            <g id="White">
                                <path d="M19.832809,0 L1.15853933,0 C0.518695724,-3.91791209e-17 7.83582419e-17,0.518695724 0,1.15853933 L0,19.832809 C7.83582419e-17,20.4726526 0.518695724,20.9913483 1.15853933,20.9913483 L11.2125843,20.9913483 L11.2125843,12.8626966 L8.47707865,12.8626966 L8.47707865,9.69460674 L11.2125843,9.69460674 L11.2125843,7.35786517 C11.2125843,4.64674157 12.8682022,3.17044944 15.2875281,3.17044944 C16.1040277,3.16764055 16.9200722,3.209388 17.7320225,3.29550562 L17.7320225,6.12696629 L16.054382,6.12696629 C14.7393258,6.12696629 14.4813483,6.75224719 14.4813483,7.66932584 L14.4813483,9.69224719 L17.6179775,9.69224719 L17.2097753,12.8603371 L14.4837079,12.8603371 L14.4837079,20.9913483 L19.8320225,20.9913483 C20.4718661,20.9913483 20.9905618,20.4726526 20.9905618,19.832809 L20.9905618,1.15853933 C20.9905619,0.519002752 20.4723454,0.000434172827 19.832809,0 L19.832809,0 Z" id="White-2"></path>
                            </g>
                        </g>
                    </g>
                </g>
            </g>
        </g>
    </g>
</svg>