<?xml version="1.0" encoding="utf-8"?>
<!-- Generator: Adobe Illustrator 16.0.0, SVG Export Plug-In . SVG Version: 6.00 Build 0)  -->
<!DOCTYPE svg PUBLIC "-//W3C//DTD SVG 1.1//EN" "http://www.w3.org/Graphics/SVG/1.1/DTD/svg11.dtd">
<svg version="1.1" id="Laag_1" xmlns="http://www.w3.org/2000/svg" xmlns:xlink="http://www.w3.org/1999/xlink" x="0px" y="0px"
	 width="212.5px" height="212.501px" viewBox="0 0 212.5 212.501" enable-background="new 0 0 212.5 212.501" xml:space="preserve">
<g>
	<path fill-rule="evenodd" clip-rule="evenodd" fill="none" d="M-31.692-31.692c91.102,0,182.202,0,273.303,0
		c0,91.102,0,182.203,0,273.304c-91.102,0-182.202,0-273.303,0C-31.692,150.511-31.692,59.41-31.692-31.692z M135.492,81.184
		c-2.113,0.006-4.225,0.014-6.338,0.021c-7.375-1.126-10.252,3.792-12.514,8.481c-0.65,5.471,1.832,8.984,3.898,12.605
		c10.789,4.891,10.789,4.891,14.936,11.557c-3.293,9.965-14.129,0.969-18.996,7.516c10.391,7.254,18.119,6.197,28.756-4.146
		c-0.172-4.688,1.719-10.135-3.088-14.481c-4.723-4.082-12.398-2.695-16.129-8.523c-0.766-3.16,1.971-4.744,3.029-7.059
		c4.248-0.1,8.496-0.196,12.744-0.293c3.088-0.029,3.023-2.049,2.701-4.249C141.8,80.127,138.65,80.628,135.492,81.184z
		 M149.381,16.343c-0.621-0.904-1.242-1.807-1.863-2.711c-5.918-6.685-10.51-3.429-14.967,1.721c0,6.022,0,11.789,0,17.554
		c-8.207-2.994,0.26-12.346-4.914-15.337c-17.025,0-32.845,0-48.479,0c-2.454,6.437,1.509,13.74-4.944,18.136
		c-1.598-0.022-2.652-0.659-2.726-2.407c1.474-0.97,2.989-1.918,2.322-4.103c-0.23-5.487,3.509-11.589-2.501-16.183
		c-3.191-4.292-6.512-4.038-9.928-0.278c-2.069,0.367-3.069,1.79-3.613,3.663c-2.064,0.116-4.13,0.232-6.197,0.349
		c-9.013,0-18.026,0-25.018,0c-9.357,5.945-9.963,13.134-9.938,20.918c0.137,42.278,0.066,84.558,0.066,126.46
		c1.892,4.383,4.137,7.943,10.236,10.908c31.409,0,64.801,0,98.074,0c1.012-2.354,1.146-4.322-2.15-7.205
		c-9.703,0-20.846,0-31.989,0c-10.704,0-21.415,0.256-32.109-0.07c-11.028-0.338-22.233,1.607-33.438-1.543
		c-0.677-2.498-1.682-4.494-1.688-6.492c-0.102-34.254-0.067-68.506-0.121-102.758c-0.003-2.349,0.661-4.113,2.75-5.25
		c6.421,0.088,12.841,0.239,19.26,0.257c46.029,0.129,92.058,0.232,138.088,0.344l-0.279-0.248
		c0.17,22.239,0.34,44.478,0.504,65.954c4.395,1.684,5.893,1.123,5.9-1.805c0-30.462,0-60.923,0-91.315
		c-4.473-5.765-9.754-8.565-16.77-8.261c-5.883,0.254-11.781,0.149-17.672,0.203C153.311,16.678,151.346,16.51,149.381,16.343z
		 M93.344,90.255c4.101,0.085,8.203,0.161,12.304,0.255c2.43,0.053,3.678-1.2,3.973-3.535c0-1.569,0-3.139,0-5.096
		c-6.98-2.052-13.682-1.417-18.899-0.771c-7.428,3.498-10.225,8.421-10.002,14.737c0.275,7.809-2.091,15.94,2.437,23.317
		c2.74,4.463,6.856,6.795,11.935,6.479c5.096-0.316,11.592,2.918,15.141-4.852c-6.175-3.826-14.661,0.27-19.628-7.689
		C90.849,106.063,86.83,97.694,93.344,90.255z M205.338,173.81c2.057-7.318,1.518-14.705,0.57-22.102
		c-8.73-23.881-27.674-34.113-49.145-25.711c-12.989,5.082-21.702,14.574-24.03,28.936c-0.734,5.225-1.168,10.441,0.469,15.598
		c5.496,17.139,16.676,27.84,35.028,29.066C184.963,200.714,197.457,191.562,205.338,173.81z M69.59,126.065
		c2.959-18.523,2.658-41.967-0.317-45.039c-2.083-0.038-4.247-0.389-5.825,1.521C61.098,117.563,61.237,118.751,69.59,126.065z"/>
	<path fill-rule="evenodd" clip-rule="evenodd" fill="#28507A" d="M26.246,51.715c-2.088,1.137-2.752,2.901-2.75,5.25
		c0.054,34.252,0.019,68.504,0.121,102.758c0.006,1.998,1.011,3.994,1.688,6.492c11.205,3.15,22.41,1.205,33.438,1.543
		c10.695,0.326,21.405,0.07,32.109,0.07c11.144,0,22.286,0,31.989,0c3.297,2.883,3.162,4.852,2.15,7.205
		c-33.273,0-66.665,0-98.074,0c-6.1-2.965-8.345-6.525-10.236-10.908c0-41.902,0.071-84.182-0.066-126.46
		c-0.025-7.784,0.581-14.973,9.938-20.918c6.991,0,16.004,0,25.018,0c-0.008,1.058-0.016,2.118-0.023,3.176
		c-4.878,3.343-4.953,6.501,0.359,9.455c2.178,3.065,4.355,6.131,6.533,9.195c3.92,4.793,7.453,5.024,12.626,0.824
		c1.692-0.683,2.989-1.702,3.148-3.691c6.453-4.396,2.49-11.699,4.944-18.136c15.634,0,31.454,0,48.479,0
		c5.174,2.991-3.293,12.343,4.914,15.337l-0.326-0.358c-0.857,3.234,0.65,5.275,3.377,6.704c4.84,4.237,8.387,4.137,12.723-0.363
		c1.232-2.875,3.186-5.068,6.066-6.373c4.646-3.842,4.91-7.188,0.99-12.535c-0.443-1.032-0.477-2.079-0.104-3.139
		c5.891-0.053,11.789,0.052,17.672-0.203c7.016-0.304,12.297,2.497,16.77,8.261c0,30.392,0,60.853,0,91.315
		c-4.178-1.576-2.693-5.166-2.709-8.064c-0.084-16.311-0.012-32.621-0.068-48.93c-0.01-2.903,1.172-6.597-3.627-7.154l0.279,0.248
		c-0.385-3.583-2.885-3.676-5.697-3.674c-48.995,0.02-97.987,0.004-146.979-0.058C28.5,48.583,26.892,49.31,26.246,51.715z"/>
	<path fill-rule="evenodd" clip-rule="evenodd" fill="#28507A" d="M132.734,154.933c2.328-14.361,11.041-23.854,24.03-28.936
		c21.471-8.402,40.414,1.83,49.145,25.711c-4.961,7.244-3.992,14.643-0.57,22.102c-7.881,17.752-20.375,26.904-37.107,25.787
		c-18.352-1.227-29.532-11.928-35.028-29.066C136.623,165.224,137.503,159.995,132.734,154.933z M174.047,138.671
		c-3.961-4.516-6.357-4.391-9.48,0.498c0,7.045,0,14.094,0,21.248c-5.109-0.832-5.842-5.4-9.76-5.09
		c-3.24,1.941-5.154,4.914-6.332,9.471c6.508,6.99,13.457,13.984,21.707,18.939c7.596-7.354,14.75-14.279,21.934-21.234
		c-2.75-2.434-4.406-6.045-8.176-7.293c-2.51-0.791-3.705,4.422-6.59,1.564C174.303,151.005,179.598,143.86,174.047,138.671z"/>
	<path fill-rule="evenodd" clip-rule="evenodd" fill="#28507A" d="M93.344,90.255c-6.514,7.438-2.495,15.808-2.74,22.845
		c4.967,7.959,13.453,3.863,19.628,7.689c-3.549,7.77-10.045,4.535-15.141,4.852c-5.079,0.316-9.195-2.016-11.935-6.479
		c-4.528-7.377-2.162-15.508-2.437-23.317c-0.223-6.316,2.575-11.24,10.002-14.737c5.217-0.647,11.918-1.281,18.899,0.771
		c0,1.957,0,3.526,0,5.096C104.377,88.968,97.846,84.583,93.344,90.255z"/>
	<path fill-rule="evenodd" clip-rule="evenodd" fill="#28507A" d="M129.046,87.155c-1.059,2.314-3.795,3.898-3.029,7.059
		c3.73,5.828,11.406,4.441,16.129,8.523c4.807,4.346,2.916,9.793,3.088,14.481c-10.637,10.344-18.365,11.4-28.756,4.146
		c4.867-6.547,15.703,2.449,18.996-7.516c-4.146-6.666-4.146-6.666-14.936-11.557c-2.066-3.621-4.549-7.135-3.898-12.605
		c2.262-4.69,5.139-9.607,12.514-8.481C129.119,83.188,129.083,85.17,129.046,87.155z"/>
	<path fill-rule="evenodd" clip-rule="evenodd" fill="#23305D" d="M26.246,51.715c0.646-2.405,2.254-3.132,4.672-3.13
		c48.991,0.063,97.984,0.078,146.979,0.058c2.813-0.002,5.313,0.091,5.697,3.674c-46.03-0.112-92.059-0.215-138.088-0.344
		C39.086,51.954,32.667,51.803,26.246,51.715z"/>
	<path fill-rule="evenodd" clip-rule="evenodd" fill="#23305D" d="M69.59,126.065c-8.353-7.314-8.492-8.502-6.142-43.517
		c1.578-1.911,3.741-1.559,5.826-1.517C72.248,84.098,72.549,107.542,69.59,126.065z"/>
	<path fill-rule="evenodd" clip-rule="evenodd" fill="#28507A" d="M132.55,32.907c0-5.765,0-11.531,0-17.554
		c4.457-5.15,9.049-8.406,14.967-1.721c-4.84,5.799-1.271,12.657-2.379,18.926c-1.297,2.939-3.365,3.18-5.945,1.721
		c-2.16-1.22-4.313-2.495-6.969-1.73L132.55,32.907z"/>
	<path fill-rule="evenodd" clip-rule="evenodd" fill="#28507A" d="M73.81,29.197c0.667,2.184-0.848,3.132-2.322,4.103
		c-3.336-0.315-6.671-0.633-10.007-0.948c-0.033-6.539-0.067-13.076-0.1-19.615c3.416-3.76,6.737-4.015,9.928,0.278
		C72.356,18.375,68.682,24.467,73.81,29.197z"/>
	<path fill-rule="evenodd" clip-rule="evenodd" fill="#23305D" d="M183.314,52.069c4.799,0.557,3.617,4.251,3.627,7.154
		c0.057,16.309-0.016,32.619,0.068,48.93c0.016,2.898-1.469,6.488,2.709,8.064c-0.008,2.928-1.506,3.488-5.9,1.805
		C183.654,96.546,183.484,74.308,183.314,52.069z"/>
	<path fill-rule="evenodd" clip-rule="evenodd" fill="#CED2D9" d="M61.48,32.351c3.336,0.315,6.671,0.633,10.007,0.948
		c0.074,1.748,1.127,2.385,2.726,2.407c-0.159,1.989-1.456,3.008-3.148,3.691c-4.209-0.274-8.417-0.549-12.626-0.824
		c-2.177-3.064-4.355-6.13-6.533-9.195c-0.119-3.151-0.24-6.302-0.359-9.455c0.008-1.058,0.016-2.118,0.023-3.176
		c2.066-0.116,4.132-0.232,6.197-0.349c0.218,3.933,0.485,7.864,0.638,11.8C58.488,30.346,59.091,31.976,61.48,32.351z"/>
	<path fill-rule="evenodd" clip-rule="evenodd" fill="#CED2D9" d="M132.224,32.549c2.656-0.765,4.809,0.51,6.969,1.73
		c2.58,1.459,4.648,1.219,5.945-1.721c3.37-0.571,3.237-3.168,3.389-5.696c0.213-3.51,0.563-7.013,0.854-10.519
		c1.965,0.167,3.93,0.334,5.896,0.501c-0.373,1.06-0.34,2.107,0.104,3.139c-0.33,4.178-0.66,8.357-0.99,12.535
		c-2.881,1.305-4.834,3.498-6.066,6.373c-4.243,0.121-8.483,0.242-12.723,0.363C132.875,37.824,131.367,35.783,132.224,32.549z"/>
	<path fill-rule="evenodd" clip-rule="evenodd" fill="#23305D" d="M205.338,173.81c-3.422-7.459-4.391-14.857,0.57-22.102
		C206.855,159.104,207.395,166.491,205.338,173.81z"/>
	<path fill-rule="evenodd" clip-rule="evenodd" fill="#23305D" d="M61.48,32.351c-2.389-0.375-2.992-2.005-3.075-4.152
		c-0.152-3.936-0.419-7.868-0.638-11.8c0.543-1.873,1.543-3.295,3.613-3.663C61.413,19.275,61.448,25.812,61.48,32.351z"/>
	<path fill-rule="evenodd" clip-rule="evenodd" fill="#23305D" d="M149.381,16.343c-0.291,3.506-0.641,7.009-0.854,10.519
		c-0.152,2.528-0.02,5.125-3.389,5.696c1.108-6.269-2.461-13.126,2.379-18.926C148.139,14.537,148.76,15.439,149.381,16.343z"/>
	<path fill-rule="evenodd" clip-rule="evenodd" fill="#23305D" d="M129.046,87.155c0.037-1.984,0.072-3.967,0.107-5.95
		c2.113-0.006,4.225-0.014,6.338-0.021c0.275,3.916,6.109,1.664,6.299,5.678C137.542,86.958,133.294,87.055,129.046,87.155z"/>
	<path fill-rule="evenodd" clip-rule="evenodd" fill="#23305D" d="M73.81,29.197c-5.127-4.73-1.454-10.822-2.501-16.183
		C77.319,17.607,73.579,23.71,73.81,29.197z"/>
	<path fill-rule="evenodd" clip-rule="evenodd" fill="#CED2D9" d="M93.344,90.255c4.502-5.672,11.034-1.287,16.277-3.28
		c-0.295,2.335-1.543,3.588-3.973,3.535C101.546,90.417,97.444,90.34,93.344,90.255z"/>
	<path fill-rule="evenodd" clip-rule="evenodd" fill="#23305D" d="M132.734,154.933c4.77,5.063,3.889,10.291,0.469,15.598
		C131.566,165.374,132,160.157,132.734,154.933z"/>
	<path fill-rule="evenodd" clip-rule="evenodd" fill="#28507A" d="M141.791,86.862c-0.189-4.014-6.023-1.762-6.299-5.678
		c3.158-0.556,6.309-1.057,9,1.429C144.814,84.813,144.878,86.833,141.791,86.862z"/>
	<path fill-rule="evenodd" clip-rule="evenodd" fill="#23305D" d="M154.391,32.518c0.33-4.178,0.66-8.357,0.99-12.535
		C159.301,25.33,159.037,28.676,154.391,32.518z"/>
	<path fill-rule="evenodd" clip-rule="evenodd" fill="#23305D" d="M58.439,38.573c4.209,0.275,8.417,0.55,12.626,0.824
		C65.893,43.597,62.36,43.366,58.439,38.573z"/>
	<path fill-rule="evenodd" clip-rule="evenodd" fill="#23305D" d="M135.601,39.253c4.24-0.121,8.48-0.242,12.723-0.363
		C143.988,43.39,140.441,43.49,135.601,39.253z"/>
	<path fill-rule="evenodd" clip-rule="evenodd" fill="#23305D" d="M51.547,19.923c0.119,3.153,0.24,6.304,0.359,9.455
		C46.594,26.424,46.669,23.266,51.547,19.923z"/>
	<path fill-rule="evenodd" clip-rule="evenodd" fill="none" d="M174.047,138.671c5.551,5.189,0.256,12.334,3.303,18.104
		c2.885,2.857,4.08-2.355,6.59-1.564c3.77,1.248,5.426,4.859,8.176,7.293c-7.184,6.955-14.338,13.881-21.934,21.234
		c-8.25-4.955-15.199-11.949-21.707-18.939c1.178-4.557,3.092-7.529,6.332-9.471c3.918-0.311,4.65,4.258,9.76,5.09
		c0-7.154,0-14.203,0-21.248C167.727,139.003,170.887,138.835,174.047,138.671z"/>
	<path fill-rule="evenodd" clip-rule="evenodd" fill="#23305D" d="M174.047,138.671c-3.16,0.164-6.32,0.332-9.48,0.498
		C167.689,134.28,170.086,134.155,174.047,138.671z"/>
</g>
</svg>
