<?xml version="1.0" encoding="utf-8"?>
<!-- Generator: Adobe Illustrator 16.0.0, SVG Export Plug-In . SVG Version: 6.00 Build 0)  -->
<!DOCTYPE svg PUBLIC "-//W3C//DTD SVG 1.1//EN" "http://www.w3.org/Graphics/SVG/1.1/DTD/svg11.dtd">
<svg version="1.1" id="Laag_1" xmlns="http://www.w3.org/2000/svg" xmlns:xlink="http://www.w3.org/1999/xlink" x="0px" y="0px"
	 width="595.279px" height="841.89px" viewBox="0 0 595.279 841.89" enable-background="new 0 0 595.279 841.89"
	 xml:space="preserve">
<title>logo rigo night</title>
<g id="Layer_2">
	<g id="Silhoute">
		<circle fill="#FFFFFF" cx="356.571" cy="105.467" r="12.977"/>
		<path fill="#FFFFFF" d="M147.7,233.901c-2.285-2.156-4.918-3.911-7.787-5.189c-1.943-1.296-4.542-1.943-7.133-2.591l-1.95-1.943
			c-0.647-2.598-1.296-5.189-2.591-7.14c-1.275-2.87-3.03-5.5-5.189-7.78c-2.161,2.286-3.917,4.924-5.189,7.801
			c-1.295,1.95-1.95,4.542-2.598,7.14l-1.943,1.916c-2.599,0.647-5.189,1.295-7.133,2.591c-2.87,1.278-5.503,3.033-7.787,5.189
			c2.283,2.159,4.917,3.917,7.787,5.196c1.943,1.296,4.534,1.943,7.133,2.591l1.943,1.943c0.647,2.598,1.303,5.189,2.598,7.14
			c1.275,2.87,3.03,5.5,5.189,7.78c2.159-2.28,3.914-4.911,5.189-7.78c1.295-1.951,1.943-4.542,2.591-7.14l1.95-1.943
			c2.591-0.648,5.189-1.295,7.133-2.591C142.783,237.813,145.416,236.058,147.7,233.901z"/>
		<path fill="#FFFFFF" d="M276.782,92.497c0,0-38.268-3.246-42.81-5.189c-1.95-1.303-4.541-1.951-7.139-2.598l-1.943-1.943
			c-0.648-2.598-1.296-5.189-2.599-7.14c-1.943-5.189-5.189-57.081-5.189-57.081s-3.267,51.892-5.188,56.419
			c-1.296,1.95-1.943,4.542-2.592,7.14l-1.943,1.943c-2.598,0.647-5.195,1.295-7.139,2.591c-4.542,1.951-46.703,5.189-46.703,5.189
			s42.161,3.246,46.703,5.189c1.943,1.303,4.541,1.95,7.139,2.598l1.943,1.943c0.648,2.598,1.296,5.189,2.592,7.14
			c1.95,4.542,5.188,48.646,5.188,48.646s3.246-44.104,5.189-48.646c1.303-1.951,1.95-4.542,2.599-7.14l1.943-1.943
			c2.598-0.648,5.188-1.295,7.139-2.598C238.515,95.736,276.782,92.497,276.782,92.497z"/>
		<path fill="#FFFFFF" d="M488.272,268.282c1.942-3.239,1.942-7.132,0-11.026c-1.943-3.894-5.838-7.78-10.379-10.378
			c-9.752-5.837-20.757-5.189-24.003,1.295c-1.943,3.246-1.943,7.14,0,11.026c0.648,1.95,2.599,3.894,3.894,5.844
			c1.943,1.943,3.895,3.239,6.485,5.189c4.346,2.479,9.248,3.815,14.251,3.886C483.061,273.478,486.954,271.528,488.272,268.282z"/>
		<path fill="#FFFFFF" d="M331.92,296.178c2.598,2.591,5.837,4.542,9.751,4.542l0,0c-0.647,8.428,3.246,16.863,9.752,20.756
			c1.902,1.316,4.172,1.996,6.484,1.943c6.485,1.296,14.272-1.295,20.109-6.485c5.189-0.647,9.055-3.246,12.328-7.139
			c3.305-3.771,5.146-8.603,5.189-13.617c-0.022-5.976-2.625-11.651-7.14-15.568c-0.686-1.946-1.792-3.718-3.238-5.189
			c-1.167-1.656-2.728-2.994-4.542-3.894c-1.95-1.295-4.541-1.943-7.14-2.598c-2.61-0.108-5.224,0.112-7.78,0.655
			c-5.566,1.5-10.544,4.658-14.271,9.055c-1.139-1.083-2.456-1.959-3.894-2.591c-1.613-0.81-3.385-1.252-5.189-1.295
			c-5.107,0.024-9.712,3.082-11.716,7.78c-0.81,1.613-1.252,3.385-1.296,5.189c0,1.943,0.648,3.246,1.296,5.189
			C330.644,294.122,331.105,295.283,331.92,296.178z"/>
		<path fill="#FFFFFF" d="M440.245,287.743c-5.745-0.119-11.317,1.97-15.567,5.837c-1.265,1.132-2.355,2.444-3.239,3.894
			c-14.272,1.295-25.946,12.977-25.946,27.896c0,11.674,7.133,21.404,16.863,25.946c0.647,0,0.647,0,1.296,0.648
			c0.792-3.333,3.716-5.723,7.14-5.837c3.887,0,7.132,3.239,7.78,6.485c11.651-1.922,20.784-11.055,22.707-22.707
			c7.211-3.804,11.71-11.301,11.674-19.454c0-6.492-2.599-11.681-6.485-16.223C451.926,290.341,446.089,287.743,440.245,287.743z"/>
		<path fill="#FFFFFF" d="M516.829,302.036c-2.599-3.246-5.189-5.837-9.055-7.788c-2.834-1.322-5.93-1.986-9.056-1.943
			c-3.119,0.025-6.2,0.687-9.055,1.943c-5.189,2.598-9.752,6.492-12.321,12.329c-1.328,2.832-1.995,5.928-1.951,9.055
			c0.023,3.12,0.688,6.202,1.951,9.055c2.591,5.189,6.484,9.751,12.321,12.329c2.833,1.322,5.929,1.986,9.055,1.943
			c6.485,0,11.674-2.591,16.216-6.485c4.206-4.344,6.535-10.168,6.484-16.215C521.379,311.161,519.777,306.197,516.829,302.036z"/>
		<path fill="#FFFFFF" d="M483.709,364.933c-1.331-0.102-2.668,0.121-3.894,0.648c-3.239,1.302-5.837,5.189-5.837,9.055
			s2.598,7.14,5.837,9.055c1.226,0.527,2.563,0.75,3.894,0.647c5.336-0.118,9.633-4.416,9.751-9.751
			c0.056-5.277-4.179-9.6-9.456-9.655C483.906,364.931,483.807,364.931,483.709,364.933z"/>
		<circle fill="#FFFFFF" cx="285.865" cy="266.339" r="9.731"/>
		<path fill="#FFFFFF" d="M510.95,272.823c1.6-0.037,3.163-0.483,4.541-1.295c-3.887-4.542-8.428-8.435-12.969-12.977l0,0
			c-0.813,1.378-1.262,2.941-1.303,4.542c0,2.598,1.303,5.189,2.598,7.14C506.416,272.175,508.36,272.823,510.95,272.823z"/>
		<circle fill="#FFFFFF" cx="429.219" cy="511.534" r="3.894"/>
		<path fill="#FFFFFF" d="M349.438,344.176c-1.95,1.95-3.246,3.894-3.246,6.492s1.296,4.535,3.246,6.485s5.189,2.591,8.428,2.591
			c2.997-0.07,5.916-0.966,8.436-2.591c1.943-1.95,3.238-3.894,3.238-6.485c0-2.591-1.295-4.542-3.238-6.492
			s-5.189-2.591-8.436-2.591C354.871,341.655,351.954,342.551,349.438,344.176z"/>
		<path fill="#FFFFFF" d="M374.736,453.185L374.736,453.185c-14.661,0.064-26.531,11.932-26.601,26.594
			c0,14.271,11.682,22.051,26.601,22.051l0,0c9.056,0,16.863-2.59,22.053-8.428c3.034-3.885,4.639-8.695,4.541-13.623
			c0-5.189-1.95-10.379-4.541-14.92C392.247,457.699,383.791,453.185,374.736,453.185z"/>
		<path fill="#FFFFFF" d="M206.816,461.244c0.696,0.313,1.351,0.646,2.026,0.982c-8.695-22.104-13.145-45.646-13.115-69.396
			c0-105.086,85.625-190.064,190.063-190.064s190.028,85.625,190.028,190.064c0,66.867-34.688,125.613-86.837,159.506
			c1.08,1.088,2.292,2.146,3.706,3.316l0.285,0.236c3.218,2.654,7.327,6.061,9.612,10.963
			c57.98-38.91,92.745-104.166,92.694-173.994c0-115.465-94.032-209.518-209.518-209.518s-209.538,94.025-209.538,209.49
			c-0.016,19.439,2.674,38.787,7.989,57.484C191.547,453.972,199.209,457.677,206.816,461.244z"/>
		<path fill="#FFFFFF" d="M227.482,414.234c3.246,10.379,0,20.109-7.78,22.707c-1.943,0.648-3.894,0.648-6.485,0
			c0,0.648,0.648,1.295,0.648,2.592c2.835,10.865,7.049,21.383,11.883,31.566c6.269,3.072,12.419,5.398,18.952,5.572h0.739
			c2.966-0.086,5.922-0.383,8.846-0.891c3.599-0.607,7.237-0.941,10.887-1.004h1.177c5.427,0.16,9.856,1.393,13.541,3.664
			c2.249,1.504,4.237,3.363,5.886,5.51c0.702,0.92,1.501,1.764,2.382,2.514c0.781,0.539,1.599,1.025,2.445,1.457
			c0.696,0.383,1.448,0.787,2.222,1.252c3.19,1.998,6.063,4.461,8.525,7.307c10.567-3.885,18.1-13.322,19.545-24.49
			c2.591,3.246,7.133,5.846,11.674,5.846c2.003-0.123,3.973-0.563,5.837-1.303c5.566-2.203,9.178-7.633,9.055-13.617
			c-0.128-3.914-1.754-7.629-4.541-10.379c-1.296-1.303-2.591-2.598-4.541-3.246c-1.865-0.738-3.835-1.176-5.837-1.295
			c-5.838,0-11.026,3.887-13.618,9.055c-0.821-2.285-1.911-4.465-3.245-6.492c-1.391-2.039-3.151-3.799-5.189-5.189
			c18.807-3.238,33.078-20.109,33.078-39.57c-0.099-22.17-18.047-40.119-40.218-40.218c-2.591,0-4.534,0-6.484,0.655
			s-4.541,0.647-6.484,1.943c4.541-4.542,7.779-9.751,9.055-16.215c0.647-1.951,0.647-4.542,0.647-6.485
			c0-1.303,0-3.246-0.647-4.542c2.591-2.598,5.188-5.844,6.484-9.055c1.635-3.691,2.534-7.667,2.646-11.702
			c0.069-16.053-12.887-29.122-28.94-29.192c-0.081,0-0.162,0-0.244,0c-1.968-0.106-3.939,0.113-5.837,0.648
			c-3.518,0.487-6.865,1.824-9.751,3.894c-3.031,1.854-5.675,4.276-7.787,7.133c-1.438,2.074-2.738,4.241-3.895,6.484
			c-0.647,2.598-1.295,4.542-1.942,7.14c6.235,0.781,10.942,6.038,11.032,12.322c0,6.485-5.837,12.329-12.321,12.329
			c-5.095-0.046-9.679-3.103-11.681-7.787c-1.296,3.894-2.592,7.787-2.592,12.322c0.025,6.214,1.825,12.292,5.189,17.518
			c-2.187,2.436-5.902,2.722-8.435,0.648c-2.039-1.391-3.799-3.151-5.189-5.189c-0.659-1.23-1.537-2.33-2.591-3.246
			c-1.196-1.88-2.28-3.829-3.246-5.837c-1.943-3.894-2.591-8.428-3.246-10.378c-4.534,14.92-7.78,30.487-8.428,47.364v13.617
			C215.808,398.019,224.242,403.855,227.482,414.234z M270.952,455.099c-4.301,0-7.787-3.486-7.787-7.787s3.486-7.787,7.787-7.787
			s7.787,3.486,7.787,7.787c0,0.002,0,0.006,0,0.008C278.68,451.593,275.227,455.044,270.952,455.099z M252.146,373.368
			c1.95,1.295,4.542,1.943,7.14,2.598c2.557,0.537,5.17,0.754,7.78,0.648c3.06-0.067,6.101-0.505,9.055-1.303
			c-3.954,3.844-7.041,8.49-9.055,13.624c1.303-0.647,1.95-1.295,3.246-1.943c9.055-2.598,18.165,1.943,20.757,9.752
			c1.295,3.239,0.647,6.484-0.648,9.751c1.706-1.222,3.74-1.901,5.837-1.951c6.421-0.027,11.647,5.156,11.674,11.577
			c0,0.032,0,0.065,0,0.098c-0.647,7.14-5.188,12.329-11.674,12.329c-6.42,0.027-11.646-5.156-11.674-11.577
			c0-0.033,0-0.065,0-0.098c0-0.655,0-1.951,0.648-2.598c-1.95,1.295-3.894,2.598-6.485,3.246
			c-9.055,2.591-18.165-1.95-20.764-9.751c-1.234-3.908-0.767-8.156,1.289-11.702h-3.894c-2.599-6.485-7.788-12.322-13.625-16.215
			L252.146,373.368z"/>
		<path fill="#FFFFFF" d="M326.807,517.962l0.328-0.572c0.752-1.387,1.621-2.709,2.598-3.949c1.656-2.016,3.524-3.85,5.572-5.467
			l-0.773-0.328c-1.95-0.646-3.245-1.295-5.188-1.295c-5.143,0.027-9.931,2.623-12.761,6.916
			C320.302,515.093,324.265,516.945,326.807,517.962z"/>
	</g>
	<g id="text">
		<path fill="#FFFFFF" d="M147.102,727.55c0,4.568-2.828,7.195-8.122,7.195h-16.118v-7.398h15.053c0.968,0,1.254-0.244,1.254-0.926
			v-1.393c0-0.572-0.286-0.809-1.212-0.809h-7.217c-4.485,0-7.878-1.393-7.878-6.59v-5.084c0-4.875,3.232-7.154,8.122-7.154h13.771
			v7.391h-12.886c-0.767,0-1.087,0.285-1.087,0.969v2.09c0,0.646,0.32,0.934,1.212,0.934h7.349c4.932,0,7.76,1.895,7.76,7.188
			V727.55z"/>
		<path fill="#FFFFFF" d="M177.156,727.146c0,5.252-2.786,7.6-8.038,7.6H158.81c-5.655,0-8.079-2.953-8.079-7.559v-14.195
			c0-5.084,2.987-7.551,8.079-7.551h10.309c5.572,0,8.038,2.383,8.038,7.594V727.146z M169.196,714.175
			c0-1.045-0.32-1.393-1.394-1.393h-7.772c-1.053,0-1.394,0.328-1.394,1.393v11.801c0,1.094,0.244,1.393,1.394,1.393h7.794
			c1.17,0,1.393-0.279,1.393-1.393L169.196,714.175z"/>
		<path fill="#FFFFFF" d="M204.023,734.746h-22.227v-29.332h7.954v21.934h14.265L204.023,734.746z"/>
		<path fill="#FFFFFF" d="M215.815,734.746h-7.954v-29.332h7.954V734.746z"/>
		<path fill="#FFFFFF" d="M260.455,719.957c0,4.445-2.18,7.391-8.24,7.391h-10.302v7.398h-7.919v-29.332h18.34
			c5.621,0,8.121,2.223,8.121,7.391V719.957z M252.459,714.175c0-1.17-0.285-1.393-1.574-1.393h-8.972v7.174h8.84
			c1.393,0,1.741-0.201,1.741-1.336L252.459,714.175z"/>
		<path fill="#FFFFFF" d="M290.998,734.746h-7.919v-6.145c0-1.051-0.362-1.254-1.86-1.254h-9.006v7.398h-7.92v-29.332h17.052
			c5.655,0,7.919,2.139,7.919,7.551v5.572c0,2.139-0.285,3.393-1.393,4.082c1.817,0.605,3.113,1.979,3.113,4.723L290.998,734.746z
			 M281.303,714.343c0-1.094-0.32-1.539-1.498-1.539h-7.592v7.152h7.558c1.288,0,1.532-0.402,1.532-1.656V714.343z"/>
		<path fill="#FFFFFF" d="M317.661,734.746H302.15c-5.05,0-7.717-2.711-7.717-7.559V713.13c0-5.377,3.113-7.717,7.717-7.717h15.512
			v7.391h-14.383c-0.648,0-0.885,0.244-0.885,1.01v3.029h11.389v7.398h-11.389v2.18c0,0.564,0.236,0.926,0.885,0.926h14.383V734.746
			z"/>
		<path fill="#FFFFFF" d="M345.335,727.55c0,4.568-2.828,7.195-8.122,7.195h-16.11v-7.398h15.066c0.975,0,1.253-0.244,1.253-0.926
			v-1.393c0-0.572-0.278-0.809-1.212-0.809h-7.236c-4.486,0-7.878-1.393-7.878-6.59v-5.084c0-4.875,3.231-7.154,8.121-7.154h13.777
			v7.391h-12.893c-0.766,0-1.087,0.285-1.087,0.969v2.09c0,0.646,0.321,0.967,1.213,0.967h7.348c4.932,0,7.76,1.861,7.76,7.154
			V727.55z"/>
		<path fill="#FFFFFF" d="M372.158,734.746h-15.532c-5.05,0-7.718-2.711-7.718-7.559V713.13c0-5.377,3.113-7.717,7.718-7.717h15.532
			v7.391h-14.383c-0.641,0-0.885,0.244-0.885,1.01v3.029h11.388v7.398h-11.388v2.18c0,0.564,0.243,0.926,0.885,0.926h14.383V734.746
			z"/>
		<path fill="#FFFFFF" d="M402.862,734.746h-7.926v-20.604c0-1.053-0.446-1.338-1.394-1.338h-9.222v21.941h-7.92v-29.332h18.744
			c4.729,0,7.717,2.424,7.717,7.475V734.746z"/>
		<path fill="#FFFFFF" d="M433.566,712.804h-9.752v21.941h-7.94v-21.941h-9.752v-7.391h27.43L433.566,712.804z"/>
		<path fill="#FFFFFF" d="M460.069,734.746h-15.512c-5.05,0-7.718-2.711-7.718-7.559V713.13c0-5.377,3.106-7.717,7.718-7.717h15.512
			v7.391h-14.384c-0.647,0-0.892,0.244-0.892,1.01v3.029h11.396v7.398h-11.396v2.18c0,0.564,0.244,0.926,0.892,0.926h14.384V734.746
			z"/>
		<path fill="#FFFFFF" d="M487.136,734.746h-15.512c-5.05,0-7.718-2.711-7.718-7.559V713.13c0-5.377,3.106-7.717,7.718-7.717h15.512
			v7.391h-14.384c-0.647,0-0.892,0.244-0.892,1.01v3.029h11.396v7.398h-11.396v2.18c0,0.564,0.244,0.926,0.892,0.926h14.384V734.746
			z"/>
		<path fill="#FFFFFF" d="M518.076,734.746h-7.913v-6.145c0-1.051-0.369-1.254-1.859-1.254h-9.014v7.398h-7.912v-29.332h17.044
			c5.656,0,7.92,2.139,7.92,7.551v5.572c0,2.139-0.286,3.393-1.394,4.082c1.818,0.605,3.106,1.979,3.106,4.723L518.076,734.746z
			 M508.38,714.343c0-1.094-0.32-1.539-1.49-1.539h-7.6v7.152h7.558c1.296,0,1.532-0.402,1.532-1.656V714.343z"/>
		<path fill="#FFFFFF" d="M547.971,712.804h-9.751v21.941h-7.94v-21.941h-9.752v-7.391h27.43L547.971,712.804z"/>
		<path fill="#FFFFFF" d="M558.155,721.009h-7.313v-7.271h7.313V721.009z M558.155,734.746h-7.313v-7.273h7.313V734.746z"/>
		<path fill="#FFFFFF" d="M156.721,823.343h-9.676v-25.221c0-1.289-0.543-1.637-1.678-1.637h-11.326v26.859h-9.695v-35.908h22.943
			c5.788,0,9.452,2.969,9.452,9.154L156.721,823.343z"/>
		<path fill="#FFFFFF" d="M172.169,823.343h-9.751v-35.906h9.751V823.343z"/>
		<path fill="#FFFFFF" d="M210.298,814.337c0,5.691-3.169,9.006-9.25,9.006h-13.597c-6.185,0-9.598-3.217-9.598-9.152v-17.852
			c0-6.031,3.81-8.902,9.891-8.902h20.52v9.057h-19.503c-0.58-0.072-1.108,0.34-1.18,0.92c-0.01,0.074-0.011,0.148-0.004,0.221
			v15.43c0,0.787,0.396,1.232,1.086,1.232h10.88c0.794,0,1.087-0.293,1.087-0.99v-1.33h-6.624v-8.561h16.319L210.298,814.337z"/>
		<path fill="#FFFFFF" d="M247.967,823.343h-9.752v-9.055h-13.032v9.055h-9.695v-35.906h9.695v17.805h13.032v-17.805h9.752V823.343z
			"/>
		<path fill="#FFFFFF" d="M286.011,796.486h-11.917v26.857h-9.752v-26.857h-11.91v-9.055h33.579V796.486z"/>
		<path fill="#FFFFFF" d="M338.516,814.044c0,6.43-3.364,9.299-9.842,9.299h-12.698c-6.923,0-9.891-3.613-9.891-9.25v-17.412
			c0-6.27,3.664-9.25,9.891-9.25h12.663c6.826,0,9.843,2.918,9.843,9.299L338.516,814.044z M328.765,798.171
			c0-1.289-0.397-1.686-1.679-1.686h-9.543c-1.288,0-1.686,0.396-1.686,1.686v14.426c0,1.336,0.3,1.678,1.686,1.678h9.543
			c1.435,0,1.679-0.342,1.679-1.678V798.171z"/>
		<path fill="#FFFFFF" d="M371.413,796.486h-16.877c-0.738,0-1.136,0.348-1.136,1.338v7.369h12.977v9.096h-13.011v9.055h-9.696
			v-26.906c0-6.031,3.664-9,9.995-9h17.748V796.486z"/>
		<path fill="#FFFFFF" d="M436.944,823.343h-9.752v-24.879c0-1.582-0.543-1.979-1.581-1.979h-4.875c-1.038,0-1.533,0.543-1.533,1.93
			v24.93h-9.751v-24.881c0-1.436-0.592-1.979-1.63-1.979h-4.598c-0.988,0-1.783,0.543-1.783,2.027v24.832h-9.751v-26.113
			c0-6.186,3.664-9.795,9.494-9.795h8.163c2.222,0,3.858,0.594,4.994,1.979c1.087-1.336,2.724-1.979,4.876-1.979h8.31
			c5.732,0,9.444,3.713,9.444,9.494L436.944,823.343z"/>
		<path fill="#FFFFFF" d="M474.577,814.044c0,6.43-3.315,9.299-9.793,9.299h-12.733c-6.923,0-9.891-3.613-9.891-9.25v-26.656h9.696
			v25.16c0,1.281,0.445,1.727,1.679,1.727h9.646c1.33,0,1.679-0.445,1.679-1.727v-25.125h9.752L474.577,814.044z"/>
		<path fill="#FFFFFF" d="M508.945,814.541c0,5.572-3.482,8.803-9.939,8.803h-19.733v-9.055h18.451c1.185,0,1.533-0.291,1.533-1.135
			v-1.678c0-0.697-0.349-0.99-1.484-0.99h-8.853c-5.489,0-9.647-1.686-9.647-8.066v-6.227c0-5.934,3.957-8.756,9.939-8.756h16.863
			v9.057h-15.77c-0.94,0-1.337,0.348-1.337,1.189v2.57c0,0.795,0.396,1.186,1.483,1.186h8.999c6.032,0,9.494,2.277,9.494,8.754
			V814.541z"/>
		<path fill="#FFFFFF" d="M523.585,823.343h-9.751v-35.906h9.751V823.343z"/>
		<path fill="#FFFFFF" d="M557.66,823.343h-18.807c-6.186,0-9.55-3.314-9.55-9.25v-17.607c0-5.982,3.664-9.055,9.794-9.055h18.597
			v9.055h-17.413c-0.885,0-1.232,0.396-1.232,1.191v15.428c-0.053,0.602,0.393,1.133,0.994,1.184c0.063,0.006,0.127,0.006,0.189,0
			h17.462L557.66,823.343z"/>
		<path fill="#FFFFFF" d="M133.108,565.277c1.331,0.049,2.647-0.299,3.978-0.305c1.556,0.063,3.094,0.357,4.563,0.877l23.954,7.139
			c2.827,0.836,17.093,2.828,15.428,7.363c-1.421,3.881-2.844,7.76-4.27,11.631c-0.869,2.65-2.038,5.193-3.482,7.58
			c-1.478,2.248-3.483,4.178-4.431,6.713c-0.563,1.479-0.745,3.08-1.254,4.578c-0.654,1.936-1.859,3.678-2.277,5.684
			c-0.767,3.648,0.641,5.076-1.561,8.463c-1.539,2.367-3.601,4.395-5.07,6.797c-10.448,16.982-20.039,34.744-27.276,53.342
			c-0.829,2.131-5.336,11.324-7.251,17.691c2.102-1.084,4.441-1.625,6.805-1.574h17.95v4.074c2.09-2.633,5.496-4.123,9.842-4.123
			h10.364c3.602,0,6.457,0.885,8.505,2.563v-2.563h5.81c3.652-20.783,10.758-40.809,21.021-59.248
			c0.912-1.637,1.943-3.35,3.622-4.178c1.065-0.51,2.284-0.607,3.405-0.982c5.183-1.734,4.18-6.451,4.876-10.623
			c0.885-5.516,6.526-8.818,9.508-13.547c0.574-1.084,1.275-2.094,2.09-3.01c0.712-0.592,1.463-1.135,2.25-1.623
			c3.155-2.242,4.827-5.969,7.236-8.992c2.41-3.021,6.527-5.51,10.023-3.857c0.447,0.18,0.83,0.49,1.101,0.891
			c0.494,0.814,0.174,1.854-0.076,2.787c-1.905,7.26,0.865,14.941,6.965,19.314c0.606,0.314,1.109,0.799,1.449,1.393
			c0.334,0.844-0.084,1.77-0.391,2.619c-1.804,5.084,1.205,11.361,6.304,13.123s10.699-0.697,16.139-0.85
			c3.226-0.092,6.408,0.654,9.55,1.393l8.024,1.881c4.771,1.115,9.604,2.25,13.93,4.52c4.326,2.271,8.233,5.824,9.856,10.449
			c0.307,0.863,0.564,1.811,1.288,2.367c0.851,0.656,2.034,0.545,3.107,0.51c9.306-0.307,13.144,7.662,20.638,11.229l-41.861,9.055
			c-2.466,0.535-5.503,1.713-5.572,4.234s3.085,3.887,5.572,4.633c4.831,1.426,9.434,3.535,13.666,6.268
			c0.801,0.516,1.49,1.938,0.563,2.166c-1.72-2.445-5.203-3.078-8.086-2.313c-2.884,0.768-5.343,2.619-7.753,4.375
			c-0.679,0.514-1.394,0.98-2.139,1.393c-0.898,0.453-1.829,0.84-2.785,1.156l-11.11,4.006c2.558,0.609,4.747,2.254,6.046,4.541
			c1.958-3.246,5.496-5.105,10.177-5.105h19.69v1.9c2.233-1.309,4.788-1.969,7.377-1.9h17.956v4.15
			c2.048-2.604,5.308-4.074,9.474-4.074h38.581c2.388-0.055,4.745,0.551,6.812,1.748v-1.748h35.788v1.727
			c2.068-1.191,4.426-1.789,6.813-1.727h19.69v2.09c2.184-1.443,4.761-2.174,7.377-2.09h36.798c2.688,0,5.635,0.488,7.94,2.09v-2.09
			h35.788v8.359h1.31c2.842-0.049,5.572-0.098,8.156-0.16l0.229-0.531c-5.572-4.178-15.323-31.344-24.378-37.611
			c-6.764-4.688-34.131-32.738-43.659-31.791c1.003-0.891-19.294-8.547-19.336-9.416c0.064-0.998,0.396-1.961,0.961-2.787
			c5.511-10.041,8.756-21.168,9.508-32.598c-0.006-1.307,0.23-2.604,0.697-3.824c0.898-1.93,2.891-3.051,4.625-4.291
			c4.339-3.113,7.717-8.268,6.965-13.555c-0.752-5.285-5.119-8.783-8.979-11.973c-4.555-3.768-7.501-6.848-10.19-12.051
			c-7.181-13.93-20.199-24.42-31.942-34.318c-2.724-2.291-5.503-4.625-8.805-5.947c-3.071-1.24-6.436-1.539-9.751-1.721
			c-12.249-0.666-24.533,0.082-36.61,2.229c-5.043,0.898-9.884,2.918-15.018,2.486c-5.133-0.432-9.911-2.361-14.989-2.82
			c-5.405-0.488-11.033-0.551-16.069,1.484c-3.828,1.654-7.181,4.244-9.751,7.529c-2.306,2.785-3.482,7.494-6.966,7.711
			c-2.932,0.188-25.618-11.402-25.305-11.842c1.219-1.686,0.341-3.393-0.76-4.932c-3.663-5.133-7.48-10.447-12.871-13.688
			c-1.734-1.045-3.602-1.865-5.225-3.078c-3.016-2.25-4.583-5.697-7.801-7.711c-3.009-1.881-6.548-2.5-10.051-2.605
			c-7.272-0.215-14.37,2.09-21.642,1.91c-15.004-0.434-27.534-9.969-40.629-16.092c-14.94-6.965-29.687-14.424-44.446-21.953
			c-12.705-6.479-25.458-13.039-37.098-21.336c-5.771-4.054-11.159-8.628-16.097-13.666c-5.488-5.691-7.467-8.916-6.666-16.829
			c0.683-6.671,0.989-13.375,0.92-20.081c-0.07-6.269-0.487-12.6-2.592-18.486c-2.104-5.886-6.102-11.319-11.764-13.973
			c-7.662-3.587-16.821-1.512-24.379,2.271c-25.396,12.712-40.553,43.186-51.377,68.024C2.313,429.99-1.476,450.998,0.53,471.091
			c1.519,15.324,10.176,33.574,28.377,31.059c4.917-0.695,9.479-2.939,13.693-5.572c5.979-3.746,11.419-8.287,16.174-13.498
			c1.999-2.188,3.907-4.5,5.705-6.861c0.995-1.316,4.806-8.658,6.22-8.838c17.699-2.25,35.523,1.045,52.561,5.627
			c15.79,4.234,32.682,7.977,47.713,14.439c3.315,1.393,8.135,4.875,7.605,8.938c-2.577-0.168-4.924-1.574-7.32-2.48L163.561,491
			l-1.965-0.752c-11.472-4.334-27.646-13.186-37.828-1.268c-3.274,3.83-4.98,8.754-6.13,13.658
			c-1.422,6.221-2.146,12.58-2.159,18.959c-0.045,5.77,0.421,11.531,1.393,17.219c-1.392-1.432-2.655-2.984-3.774-4.639
			c-1.289-2.834-3.1-5.627-3.991-8.615c-0.627-2.09-0.697-4.299-1.073-6.438c-0.369-1.992-2.34-7.627-5.397-5.342
			c-0.596,0.533-0.999,1.248-1.149,2.033c-2.417,8.672,2.73,18.389,6.847,25.836c4.402,8.127,10.566,15.166,18.04,20.604
			C128.406,563.703,130.615,565.181,133.108,565.277z M332.463,568.279c2.277,0.893,4.549,1.813,6.826,2.711
			c0.678,0.26,1.282,0.682,1.762,1.225c0.755,0.896,1.669,1.646,2.696,2.209c1.159,1.203,2.547,2.166,4.081,2.828
			c3.393,1.691,6.861,3.176,10.679,3.67c1.602,0.203,1.775,0.439,1.817,1.867c0.146,4.973,1.539,9.646,3.427,14.195
			c0.613,1.49,1.303,2.953,1.923,4.443c0.396,0.947,0.369,0.961-0.836,1.074c-0.578-0.523-1.129-1.074-1.728-1.568
			c-0.898-0.758-1.613-1.711-2.09-2.785c-1.019-2.27-2.883-4.051-5.196-4.967c-3.036-1.199-5.098-3.559-7.076-5.949
			c-1.483-1.797-2.939-3.635-4.514-5.355c-1.326-1.424-2.566-2.928-3.713-4.5c-1.292-1.75-2.861-3.275-4.646-4.52
			c-1.763-1.283-2.988-3.094-4.527-4.654C331.829,567.792,332.15,568.154,332.463,568.279z M310.014,535.542
			c0.216,0.063,0.425,0.133,0.634,0.217c5.321,1.971,10.629,3.977,15.972,5.885c0.984,0.254,1.662,1.156,1.63,2.174
			c0.243,3.105,1.017,6.137,1.567,9.201l0,0c0.467,1.309,0.933,2.611,1.393,3.922c0.091,0.25,0.223,0.535,0,0.779
			s-0.516,0.105-0.766,0c-1.233-0.516-2.466-1.031-3.686-1.566c-2.542-1.123-5.099-2.195-7.592-3.406
			c-1.114-0.537-1.748-1.68-2.515-2.619c-1.999-1.596-3.72-3.482-5.913-4.877c-0.422-0.285-0.69-0.746-0.731-1.252
			c-0.411-2.475-0.864-4.932-1.227-7.412c-0.216-1.213,0.042-1.393,1.233-1.053V535.542z"/>
		<path fill="#FFFFFF" d="M154.353,777.345h-8.645v-6.715c0-1.1-0.307-1.393-1.63-1.393h-10.177v8.072H125.3v-8.037h-3.406v-8.031
			h3.42v-15.756h18.521c6.144,0,8.603,2.326,8.603,8.205v6.715c0,1.93-0.487,3.113-1.539,3.775c1.888,0.613,3.482,1.887,3.482,5.043
			L154.353,777.345z M143.821,755.181c0-1.393-0.438-1.664-1.581-1.664h-8.358v7.725h8.296c1.268,0,1.623-0.355,1.623-1.805
			L143.821,755.181z"/>
		<path fill="#FFFFFF" d="M166.068,777.345h-8.65v-31.859h8.65V777.345z"/>
		<path fill="#FFFFFF" d="M198.805,780.556h-8.602v-3.205h-11.716c-5.489,0-8.47-2.785-8.47-8.072v-15.846
			c0-5.35,3.329-7.941,8.728-7.941h18.256v8.031h-17.462c-0.613,0-0.927,0.398-0.927,1.143v13.555c0,0.697,0.313,1.102,0.927,1.102
			h10.664v-2.328h-5.928v-7.285h14.529V780.556z"/>
		<path fill="#FFFFFF" d="M231.055,769.091c0,5.711-2.981,8.254-8.734,8.254h-11.235c-6.144,0-8.776-3.205-8.776-8.205v-15.449
			c0-5.531,3.253-8.205,8.776-8.205h11.235c6.06,0,8.734,2.59,8.734,8.246V769.091z M222.452,755.007c0-1.143-0.348-1.49-1.49-1.49
			h-8.561c-1.136,0-1.49,0.348-1.49,1.49v12.816c0,1.184,0.265,1.49,1.49,1.49h8.561c1.274,0,1.49-0.307,1.49-1.49V755.007z"/>
		<path fill="#FFFFFF" d="M274.233,758.433c0,7.371-5.439,13.555-10.573,18.912h-5.837c-5.224-5.439-10.531-11.633-10.531-19.092
			v-12.768h8.644v11.889c0,4.389,2.41,8.123,4.827,10.93c2.41-2.787,4.827-6.541,4.827-10.881v-11.938h8.644V758.433z"/>
		<path fill="#FFFFFF" d="M302.54,777.345h-16.856c-5.481,0-8.358-2.939-8.358-8.205v-15.275c0-5.838,3.378-8.359,8.358-8.359
			h16.856v8.031h-15.623c-0.697,0-0.969,0.266-0.969,1.094v3.295h12.378v8.004h-12.378v2.367c0,0.613,0.265,1.01,0.969,1.01h15.623
			V777.345z"/>
		<path fill="#FFFFFF" d="M335.033,777.345h-8.581v-6.674c0-1.141-0.397-1.393-2.021-1.393h-9.751v8.031h-8.638v-31.859h18.542
			c6.144,0,8.603,2.326,8.603,8.205v6.053c0,2.326-0.307,3.691-1.491,4.438c1.972,0.654,3.379,2.152,3.379,5.133L335.033,777.345z
			 M324.502,755.181c0-1.184-0.355-1.664-1.623-1.664h-8.233v7.766h8.205c1.394,0,1.672-0.439,1.672-1.797L324.502,755.181z"/>
		<path fill="#FFFFFF" d="M362.303,753.517h-15.011c-0.654,0-1.01,0.307-1.01,1.184v6.541h11.542v8.072h-11.542v8.031h-8.596
			v-23.877c0-5.35,3.246-7.982,8.86-7.982h15.756V753.517z"/>
		<path fill="#FFFFFF" d="M389.551,753.517h-15.003c-0.696,0-1.01,0.307-1.01,1.184v6.541h11.541v8.072h-11.541v8.031h-8.603
			v-23.877c0-5.35,3.246-7.982,8.859-7.982h15.756V753.517z"/>
		<path fill="#FFFFFF" d="M421.014,777.345h-8.665v-8.031H400.87v8.031h-8.687v-23.682c0-5.887,3.602-8.164,9.056-8.164h10.691
			c5.572,0,9.055,1.971,9.055,8.295L421.014,777.345z M412.349,761.242v-6.674c0-0.654-0.397-1.051-1.185-1.051h-9.264
			c-0.528-0.055-1,0.328-1.055,0.857c-0.006,0.051-0.007,0.102-0.004,0.152v6.715H412.349z"/>
		<path fill="#FFFFFF" d="M454.016,769.794c0,5.008-2.501,7.551-8.645,7.551h-20.408v-31.859h18.604
			c5.705,0,8.603,1.664,8.603,7.766v4.43c0,1.449-0.175,2.375-1.227,3.072c1.888,0.439,3.072,1.623,3.072,4.479V769.794z
			 M443.568,755.097c0-1.143-0.438-1.58-1.49-1.58h-8.512v4.387h8.512c1.052,0,1.49-0.396,1.49-1.67V755.097z M445.371,766.507
			c0-0.355-0.307-0.572-1.01-0.572h-10.796v3.379h11.061c0.613,0,0.745-0.307,0.745-0.92V766.507z"/>
		<path fill="#FFFFFF" d="M486.356,777.345h-8.603v-6.674c0-1.141-0.396-1.393-2.02-1.393h-9.752v8.031h-8.637v-31.859h18.521
			c6.144,0,8.603,2.326,8.603,8.205v6.053c0,2.326-0.307,3.691-1.49,4.438c1.971,0.654,3.378,2.152,3.378,5.133V777.345z
			 M475.824,755.181c0-1.184-0.355-1.664-1.623-1.664h-8.22v7.766h8.206c1.393,0,1.671-0.439,1.671-1.797L475.824,755.181z"/>
		<path fill="#FFFFFF" d="M498.072,777.345h-8.651v-31.859h8.651V777.345z"/>
		<path fill="#FFFFFF" d="M527.278,777.345h-16.877c-5.489,0-8.358-2.939-8.358-8.205v-15.275c0-5.838,3.378-8.359,8.358-8.359
			h16.877v8.031h-15.651c-0.696,0-0.961,0.266-0.961,1.094v3.295h12.37v8.004h-12.37v2.367c0,0.613,0.257,1.01,0.961,1.01h15.651
			V777.345z"/>
		<path fill="#FFFFFF" d="M559.813,745.486l-11.842,15.756h0.898c5.621,0,9.39,3.113,9.39,9.348v6.756h-8.63v-5.928
			c0-1.756-0.522-2.09-1.888-2.09h-8.358v8.031h-8.623V745.5h8.644v14.084l10.448-14.084L559.813,745.486z"/>
	</g>
</g>
</svg>
