<?xml version="1.0" encoding="UTF-8"?>
<svg width="26px" height="21px" viewBox="0 0 26 21" version="1.1" xmlns="http://www.w3.org/2000/svg" xmlns:xlink="http://www.w3.org/1999/xlink">
    <!-- Generator: Sketch 43.1 (39012) - http://www.bohemiancoding.com/sketch -->
    <title>twitter-icon</title>
    <desc>Created with Sketch.</desc>
    <defs></defs>
    <g id="Page-1" stroke="none" stroke-width="1" fill="none" fill-rule="evenodd">
        <g id="home" transform="translate(-126.000000, -1535.000000)" fill="#FFFFFF">
            <g id="sprite" transform="translate(20.000000, 1535.000000)">
                <g id="twitter-icon" transform="translate(106.000000, 0.000000)">
                    <g id="Logo__x2014__FIXED">
                        <path d="M8.12166194,20.9588235 C17.8655897,20.9588235 23.1973677,12.9088235 23.1973677,5.93970588 C23.1973677,5.71323529 23.1973677,5.48676471 23.1870348,5.26029412 C24.2203252,4.51911765 25.1192877,3.58235294 25.8322581,2.52205882 C24.881631,2.94411765 23.8586735,3.22205882 22.7840516,3.35588235 C23.8793394,2.70735294 24.7163045,1.66764706 25.1192877,0.432352941 C24.0963303,1.03970588 22.959711,1.47205882 21.7507613,1.70882353 C20.7794684,0.679411765 19.4051923,0.0411764706 17.8862555,0.0411764706 C14.9620439,0.0411764706 12.5854761,2.40882353 12.5854761,5.32205882 C12.5854761,5.73382353 12.6371406,6.13529412 12.7198039,6.52647059 C8.3179871,6.31029412 4.41214968,4.2 1.79792516,1.00882353 C1.34327742,1.79117647 1.08495484,2.69705882 1.08495484,3.66470588 C1.08495484,5.49705882 2.02524903,7.11323529 3.44085677,8.06029412 C2.5728929,8.02941176 1.75659355,7.79264706 1.04362323,7.40147059 L1.04362323,7.47352941 C1.04362323,10.0264706 2.8725471,12.1676471 5.29044645,12.6514706 C4.84613161,12.775 4.38115097,12.8367647 3.89550452,12.8367647 C3.55451871,12.8367647 3.22386581,12.8058824 2.90354581,12.7441176 C3.57518452,14.8441176 5.53843613,16.3676471 7.85300645,16.4088235 C6.03441548,17.8294118 3.75084387,18.6735294 1.2709471,18.6735294 C0.847298065,18.6735294 0.423649032,18.6529412 0.0103329032,18.6014706 C2.34556903,20.0838235 5.1354529,20.9588235 8.12166194,20.9588235" id="Shape"></path>
                    </g>
                </g>
            </g>
        </g>
    </g>
</svg>